<svg width="24" height="24" xmlns="http://www.w3.org/2000/svg"><g><path d="M0 0h24v24H0V0z" fill="none"/><g><path d="M12 14.502l.305.002c1.827.017 3.224.193 4.245.535.181.06.36.13.534.21.303.135.585.311.839.524.56.482.839 1.11.847 1.899v.037c.007.385-.07.766-.223 1.119-.25.55-.71.985-1.387 1.314a5.928 5.928 0 0 1-1.087.391c-.744.195-1.652.318-2.738.371-.245.012-.489.02-.733.025l-.602.005c-4.682 0-6.77-.989-6.77-3.207a2.651 2.651 0 0 1 .245-1.166c.185-.383.474-.71.87-.98.207-.141.427-.262.656-.36a6.607 6.607 0 0 1 1.19-.382c.813-.185 1.805-.293 2.994-.326.271-.008.543-.011.815-.011zM7.392 8.588a4.58 4.58 0 0 0 1.346 3.263A4.577 4.577 0 0 0 12 13.198a4.581 4.581 0 0 0 3.263-1.347 4.582 4.582 0 0 0 1.346-3.263 4.583 4.583 0 0 0-1.346-3.262A4.584 4.584 0 0 0 12 3.98a4.58 4.58 0 0 0-3.262 1.345 4.58 4.58 0 0 0-1.346 3.263zm-.663 9.139c.022.426.28.804.667.981.99.58 2.911.727 4.604.727 2.59 0 4.261-.337 4.934-.982.212-.189.334-.46.336-.743a1.142 1.142 0 0 0-.666-.982c-.795-.465-2.191-.651-3.587-.707-.339-.013-.678-.02-1.017-.019-3.448 0-5.27.597-5.27 1.725zm10.928-7.002a.75.75 0 0 0 0 1.499 3.652 3.652 0 1 0 0-7.302.75.75 0 0 0 0 1.5 2.152 2.152 0 1 1 0 4.303zM6.352 4.922a3.651 3.651 0 1 0 0 7.302.75.75 0 0 0 0-1.5 2.152 2.152 0 0 1 0-4.302.75.75 0 0 0 0-1.5zm3.446 1.465a3.09 3.09 0 0 0-.906 2.201 3.092 3.092 0 0 0 .906 2.202 3.088 3.088 0 0 0 2.202.908 3.092 3.092 0 0 0 2.202-.908c.584-.583.91-1.376.906-2.202A3.09 3.09 0 0 0 12 5.48a3.09 3.09 0 0 0-2.202.907zm9.866 11.592a.752.752 0 0 0 .901.735 5.128 5.128 0 0 0 1.104-.342 2.2 2.2 0 0 0 1.134-1.054 2.13 2.13 0 0 0 .207-.91v-.005c0-.316-.07-.628-.206-.914a1.971 1.971 0 0 0-.364-.523c-.433-.449-1.084-.712-1.882-.868a9.996 9.996 0 0 0-1.568-.22.75.75 0 0 0-.05 1.498c.44.03.878.093 1.31.189l.141.03c.582.132.96.332 1.059.54a.628.628 0 0 1-.027.585c-.104.154-.362.302-.74.419a4.48 4.48 0 0 1-.42.106.75.75 0 0 0-.6.734zm-16.44-3.833l.207-.045a10.212 10.212 0 0 1 1.588-.224.75.75 0 0 1 .05 1.499 8.682 8.682 0 0 0-.996.125l-.333.068c-.614.121-1.036.324-1.164.538a.62.62 0 0 0-.014.567c.097.206.471.405 1.045.54l.14.031a.749.749 0 1 1-.303 1.469 5.534 5.534 0 0 1-.922-.265c-.609-.241-1.061-.595-1.315-1.13a2.123 2.123 0 0 1 0-1.83c.24-.48.647-.856 1.144-1.058.281-.124.574-.22.874-.285z" fill="#9fa1ab" fill-rule="evenodd" style="stroke:none;stroke-width:0;stroke-dasharray:none;stroke-linecap:butt;stroke-dashoffset:0;stroke-linejoin:miter;stroke-miterlimit:4;fill:#9fa1ab;fill-rule:evenodd;opacity:1"/></g></g></svg>