<svg width="9.32" height="9.33" xmlns="http://www.w3.org/2000/svg"><path d="M8.183 9.14L4.664 5.62 1.138 9.14a.663.663 0 0 1-.943 0 .663.663 0 0 1 0-.943l3.527-3.521L.197 1.148a.664.664 0 0 1 0-.943.667.667 0 0 1 .943 0l3.526 3.529L8.183.222a.666.666 0 1 1 .942.943L5.608 4.677l3.518 3.521a.667.667 0 0 1-.943.942z" fill="#92929d" fill-rule="evenodd" style="stroke:none;stroke-width:0;stroke-dasharray:none;stroke-linecap:butt;stroke-dashoffset:0;stroke-linejoin:miter;stroke-miterlimit:4;fill:#92929d;fill-rule:evenodd;opacity:1"/></svg>