<svg width="222.46" height="982.82" xmlns="http://www.w3.org/2000/svg"><g><path d="M207.17 980.526v-12.233a2.294 2.294 0 0 1 2.293-2.293h3.823a.764.764 0 1 1 0 1.529h-3.823a.764.764 0 0 0-.764.764v12.233a.764.764 0 0 0 .764.764h3.823a.764.764 0 1 1 0 1.529h-3.823a2.293 2.293 0 0 1-2.293-2.293zm10.927-3.599l1.753-1.753h-7.329a.764.764 0 1 1 0-1.53h7.328l-1.752-1.752a.76.76 0 0 1 0-1.08.766.766 0 0 1 1.082 0l3.057 3.057a.232.232 0 0 1 .006.006.762.762 0 0 1 .144.207l.004.009a.728.728 0 0 1 .005.01l.002.005a.695.695 0 0 1 .063.304.76.76 0 0 1-.24.557l-3.041 3.042a.764.764 0 0 1-1.082-1.082z" fill="#565656" fill-rule="evenodd"/><g clip-path="url(#a)"><clipPath id="a"><path transform="translate(207.16 966)" d="M0 14.526V2.293A2.294 2.294 0 0 1 2.293 0h3.823a.764.764 0 1 1 0 1.529H2.293a.764.764 0 0 0-.764.764v12.233a.764.764 0 0 0 .764.764h3.823a.764.764 0 1 1 0 1.529H2.293A2.293 2.293 0 0 1 0 14.526zm10.927-3.599l1.753-1.753H5.35a.764.764 0 1 1 0-1.53h7.328l-1.752-1.752a.76.76 0 0 1 0-1.08.766.766 0 0 1 1.082 0l3.057 3.056a.232.232 0 0 1 .006.007.762.762 0 0 1 .144.207l.005.009a.728.728 0 0 1 .004.01l.002.005a.695.695 0 0 1 .063.304.76.76 0 0 1-.24.557l-3.041 3.042a.764.764 0 0 1-1.082-1.082z" stroke-linecap="round"/></clipPath></g></g></svg>