<svg width="18" height="4" viewBox="0 0 18 4" fill="none" xmlns="http://www.w3.org/2000/svg">
<path d="M0 2C0 1.43111 0.174373 0.955556 0.523118 0.573333C0.879789 0.191111 1.35139 0 1.93791 0C2.52444 0 2.99207 0.191111 3.34082 0.573333C3.69749 0.955556 3.87583 1.43111 3.87583 2C3.87583 2.56889 3.69749 3.04444 3.34082 3.42667C2.99207 3.80889 2.52444 4 1.93791 4C1.35139 4 0.879789 3.80889 0.523118 3.42667C0.174373 3.04444 0 2.56889 0 2Z" fill="#92929D"/>
<path d="M7.06209 2C7.06209 1.43111 7.23646 0.955556 7.58521 0.573333C7.94188 0.191111 8.41347 0 9 0C9.58653 0 10.0542 0.191111 10.4029 0.573333C10.7596 0.955556 10.9379 1.43111 10.9379 2C10.9379 2.56889 10.7596 3.04444 10.4029 3.42667C10.0542 3.80889 9.58653 4 9 4C8.41347 4 7.94188 3.80889 7.58521 3.42667C7.23646 3.04444 7.06209 2.56889 7.06209 2Z" fill="#92929D"/>
<path d="M14.1242 2C14.1242 1.43111 14.2985 0.955556 14.6473 0.573333C15.004 0.191111 15.4756 0 16.0621 0C16.6486 0 17.1162 0.191111 17.465 0.573333C17.8217 0.955556 18 1.43111 18 2C18 2.56889 17.8217 3.04444 17.465 3.42667C17.1162 3.80889 16.6486 4 16.0621 4C15.4756 4 15.004 3.80889 14.6473 3.42667C14.2985 3.04444 14.1242 2.56889 14.1242 2Z" fill="#92929D"/>
</svg>
