<svg id="Project_managers" data-name="Project managers" xmlns="http://www.w3.org/2000/svg" xmlns:xlink="http://www.w3.org/1999/xlink" width="18" height="18" viewBox="0 0 18 18">
      <path id="Combined_Shape" data-name="Combined Shape" d="M17,18a.955.955,0,0,1-1-.9V15.3a2.865,2.865,0,0,0-3-2.7H5a2.865,2.865,0,0,0-3,2.7v1.8A.955.955,0,0,1,1,18a.955.955,0,0,1-1-.9V15.3a4.775,4.775,0,0,1,5-4.5h8a4.775,4.775,0,0,1,5,4.5v1.8A.956.956,0,0,1,17,18ZM9,9A4.775,4.775,0,0,1,4,4.5,4.775,4.775,0,0,1,9,0a4.775,4.775,0,0,1,5,4.5A4.775,4.775,0,0,1,9,9ZM9,1.8A2.865,2.865,0,0,0,6,4.5,2.865,2.865,0,0,0,9,7.2a2.865,2.865,0,0,0,3-2.7A2.865,2.865,0,0,0,9,1.8Z" fill="#9fa1ab"/>
  <path id="Combined_Shape-2" data-name="Combined Shape" d="M17,18a.955.955,0,0,1-1-.9V15.3a2.865,2.865,0,0,0-3-2.7H5a2.865,2.865,0,0,0-3,2.7v1.8A.955.955,0,0,1,1,18a.955.955,0,0,1-1-.9V15.3a4.775,4.775,0,0,1,5-4.5h8a4.775,4.775,0,0,1,5,4.5v1.8A.956.956,0,0,1,17,18ZM9,9A4.775,4.775,0,0,1,4,4.5,4.775,4.775,0,0,1,9,0a4.775,4.775,0,0,1,5,4.5A4.775,4.775,0,0,1,9,9ZM9,1.8A2.865,2.865,0,0,0,6,4.5,2.865,2.865,0,0,0,9,7.2a2.865,2.865,0,0,0,3-2.7A2.865,2.865,0,0,0,9,1.8Z" fill="#9fa1ab"/>
</svg>
