<svg xmlns="http://www.w3.org/2000/svg" width="24" height="24" viewBox="0 0 24 24"><g transform="translate(-813 -155)"><rect width="24" height="24" transform="translate(813 155)" fill="rgba(255,255,255,0)"/><g transform="translate(816 159)"><path d="M7.141.588H0" transform="translate(0 13.612)" fill="none" stroke="#505050" stroke-linecap="round" stroke-linejoin="round" stroke-miterlimit="10" stroke-width="1.5"/><path d="M5.686,2.8A2.822,2.822,0,0,1,2.843,5.6,2.822,2.822,0,0,1,0,2.8,2.821,2.821,0,0,1,2.843,0,2.821,2.821,0,0,1,5.686,2.8Z" transform="translate(12.314 11.4)" fill="none" stroke="#505050" stroke-linecap="round" stroke-linejoin="round" stroke-miterlimit="10" stroke-width="1.5"/><path d="M0,.588H7.142" transform="translate(10.858 2.212)" fill="none" stroke="#505050" stroke-linecap="round" stroke-linejoin="round" stroke-miterlimit="10" stroke-width="1.5"/><path d="M0,2.8A2.821,2.821,0,0,0,2.843,5.6,2.821,2.821,0,0,0,5.686,2.8,2.822,2.822,0,0,0,2.843,0,2.822,2.822,0,0,0,0,2.8Z" fill="none" stroke="#505050" stroke-linecap="round" stroke-linejoin="round" stroke-miterlimit="10" stroke-width="1.5"/></g></g></svg>