<svg xmlns="http://www.w3.org/2000/svg" width="16" height="16" viewBox="0 0 16 16"><rect width="16" height="16" fill="none"/><path d="M1.318,12.477a4.5,4.5,0,0,1,0-6.364l.019-.018L6.5.928a3.166,3.166,0,1,1,4.478,4.478L9.568,6.82h0L5.762,10.626h0A1.833,1.833,0,0,1,3.2,8L8.389,2.813A.5.5,0,0,1,9.1,3.52L3.911,8.706A.833.833,0,1,0,5.089,9.884L10.274,4.7A2.167,2.167,0,0,0,7.211,1.634L2.025,6.82a3.5,3.5,0,0,0,4.95,4.95l4.243-4.243a.5.5,0,1,1,.707.707L7.682,12.477a4.5,4.5,0,0,1-6.365,0Z" transform="translate(2.045 1.16)" fill="#92929d"/></svg>