<svg width="20" height="20" xmlns="http://www.w3.org/2000/svg"><g><path d="M.004 14.336L0 14.1V5.937a6.607 6.607 0 0 1 .646-2.943C1.449 1.37 2.957.294 4.914.078a6.66 6.66 0 0 1 .514-.037l.23-.003h3.677a.737.737 0 0 1 .1 1.466l-.1.006H5.657a4.493 4.493 0 0 0-2.005.437c-1.005.496-1.707 1.395-2.01 2.585-.095.383-.15.776-.162 1.171l-.005.234V14.1c-.01.683.112 1.36.358 1.997.55 1.367 1.707 2.24 3.28 2.403.107.01.214.019.321.023l.223.004h8.678a4.509 4.509 0 0 0 2.009-.436c1.313-.647 2.107-1.98 2.17-3.756l.005-.235v-3.954a.737.737 0 0 1 1.468-.1l.007.1V14.1a6.633 6.633 0 0 1-.63 2.914c-.794 1.636-2.3 2.72-4.262 2.943-.178.02-.357.033-.536.04l-.23.003H5.656a5.897 5.897 0 0 1-2.88-.702c-1.35-.747-2.28-2.047-2.626-3.7a7.187 7.187 0 0 1-.147-1.262zm5.256-.432l.092-3.711a2.855 2.855 0 0 1 .84-1.955L13.543.9a3.066 3.066 0 0 1 2.18-.9A3.066 3.066 0 0 1 17.9.9l1.197 1.195c.58.576.905 1.36.903 2.177a3.05 3.05 0 0 1-.903 2.175l-7.384 7.372c-.538.54-1.27.842-2.032.84H5.998a.734.734 0 0 1-.738-.755zm1.567-3.675l-.074 2.956H9.68c.322 0 .637-.112.886-.315l.102-.093 5.737-5.727-3.468-3.463-5.702 5.692c-.254.254-.4.591-.409.95zM17.45 6.01l.605-.605c.302-.299.472-.707.47-1.133a1.591 1.591 0 0 0-.47-1.135l-1.197-1.194a1.595 1.595 0 0 0-1.136-.47c-.43 0-.833.167-1.136.47l-.605.603 3.47 3.463z" fill="#696974" fill-rule="evenodd" style="stroke:none;stroke-width:0;stroke-dasharray:none;stroke-linecap:butt;stroke-dashoffset:0;stroke-linejoin:miter;stroke-miterlimit:4;fill:#696974;fill-rule:evenodd;opacity:1"/></g></svg>