<svg xmlns="http://www.w3.org/2000/svg" width="438.422" height="279.563" viewBox="0 0 438.422 279.563">
  <g id="Business_Startup_workflow_error_exhaustion_exhausted_work_laptop_computer_support" data-name="Business, Startup, workflow, error | exhaustion, exhausted, work, laptop, computer, support" transform="translate(1.553 1.517)">
    <g id="Group">
      <path id="Path" d="M216.179,115.916H87.316l87.569-1.016c16.189-1.409,27.6-17.3,21.446-32.355-1.063-2.6.049-3.324-1.267-5.831-13.766-25.95-37.634-47.089-64.681-59.369.67-.126,1.345-.219,2.034-.311a136.955,136.955,0,0,0-15.533-6.624C114.067,9.4,111.218,8.5,108.374,7.7,94.389,3.753,75.492,5.556,69.54,21.058c-5,13.014,1.641,28.734,14.14,34.435l22.45,8.592c-.189-.282-.359-.564-.534-.86l19.523,7.469a2.323,2.323,0,0,1-1.092,4.213L76.613,80.091c-6.835.69-15.392,3.552-20.431,8.261-3.675,3.4-6.772,8.033-6.742,13.893a72.252,72.252,0,0,0-9.223,1.3c-4.645,1-9.373,2.726-9.708,5.559-.66,5.686,7.412,6.842,12.5,6.842l-32.193-.126c3.456,0,3.883-.029,6.174-2.313s4.854-4.043,4.854-7.5l.282-11.089c0-2.284.544-4.131-1.738-4.131H0a4.324,4.324,0,0,0,4-2.43.122.122,0,0,0,.029-.063,13.841,13.841,0,0,0,1.063-7.2l.238-.846.612-2.255L18.9,70.358a3.1,3.1,0,0,0,.282-.185c6.757-4.135,7.6-11.527,5.286-18.136-.049-.126-.078-.238-.126-.345-.107-.282-.2-.549-.325-.816a24.691,24.691,0,0,0-2.286-4.306c-3.345-5.229-8.2-9.491-12.81-10.6a17.752,17.752,0,0,0-3.942-.437C21.023,20.465,39.513,7.077,61.351,2.625A126.673,126.673,0,0,1,119.1,4.132a124.47,124.47,0,0,1,57.672,34.546c21.2,22.145,31.12,48.017,39.411,77.238Z" transform="translate(197.875 160.521)" fill="#303030"/>
      <path id="Path-2" data-name="Path" d="M37.285,6.618a7.46,7.46,0,0,1-3.534,3.4,17.423,17.423,0,0,1-4.111,1.458c-2.349.394-3.179-1.093-4.679-2.551A10.98,10.98,0,0,0,22.048,6.9,4.849,4.849,0,0,0,17.9,6.842a2.508,2.508,0,0,0-1.485,2.289c.1,1.783,2.553,3.193,3.942,3.931a34.183,34.183,0,0,0,5.631,2.08c4.742,1.458-3.155,4.5-4.815,4.685a33.864,33.864,0,0,1-10.679-.253A36.071,36.071,0,0,1,12.81,26.62c.549,2.318,1.189,5.107.738,7.44a9.462,9.462,0,0,1-4.679,6.157L0,3.178a26.268,26.268,0,0,1,21.038-.69A6.237,6.237,0,0,0,27.625,1.03l.908-.88a6.556,6.556,0,0,1,3.786.3c2.15.812,6.131,3.421,4.966,6.167Z" transform="translate(161.051 203.238)" fill="#ffd64d"/>
      <path id="Path-3" data-name="Path" d="M173.73,0H137.11a14.083,14.083,0,0,1-14,12.591H0A12.6,12.6,0,0,0,12.563,25.168H173.72A12.628,12.628,0,0,0,186.3,12.591V4.135A4.133,4.133,0,0,0,182.166,0Z" transform="translate(33.713 251.274)" fill="none" stroke="#000" stroke-miterlimit="10" stroke-width="3"/>
      <path id="Path-4" data-name="Path" d="M150.892,5.851a14.012,14.012,0,0,1,2.286,4.976l17.349,72.407a13.622,13.622,0,0,1,.3,4.806,14.083,14.083,0,0,1-14,12.591H31.426a14.1,14.1,0,0,1-13.7-10.822L.394,17.4A14.089,14.089,0,0,1,14.1,0H139.475a14,14,0,0,1,10.791,5.059Z" transform="translate(0 163.209)" fill="none" stroke="#000" stroke-miterlimit="10" stroke-width="3"/>
      <ellipse id="Oval" cx="13.554" cy="15.248" rx="13.554" ry="15.248" transform="translate(67.962 208.363) rotate(-17.5)" fill="#f5db81"/>
      <path id="Path-5" data-name="Path" d="M62.135,9.238c-11.063,1.851-19.567,6.915-25.276,17.4-5.111,9.379-5.708,20.823-.257,30.129L14.346,48.221C1.458,42.312-3.076,29.181,2.089,15.7,8.229-.37,27.714-2.236,42.136,1.856c2.937.826,5.869,1.769,8.771,2.809Q56.6,6.706,62.135,9.238Z" transform="translate(268.841 167.894)" fill="#353642"/>
      <g id="Group-2" data-name="Group" transform="translate(71.779)">
        <path id="Path-6" data-name="Path" d="M0,163.219a69.179,69.179,0,0,1,34.824-23.948A103.107,103.107,0,1,1,232.377,82.332a105.564,105.564,0,0,1,2.136,19,91.388,91.388,0,0,1,12.2-3.4,90.181,90.181,0,0,1,85.7,148.061" transform="translate(0 0)" fill="none" stroke="#9fa1ab" stroke-miterlimit="10" stroke-width="3" opacity="0.2"/>
        <g id="Group-3" data-name="Group" transform="translate(121.523 157.844)">
          <path id="Path-7" data-name="Path" d="M0,93.435H3.442A6.371,6.371,0,0,0,8.6,91a.16.16,0,0,0,.034-.063,8.438,8.438,0,0,0,1.578-5.861l-.282-2.192L9.7,81.121l.845-.486L23.776,72.82l.893-.515c6.461-3.805,6.927-10.9,4.393-17.621-.044-.121-.078-.233-.121-.345-.112-.282-.223-.544-.33-.812a31.035,31.035,0,0,0-2.286-4.306c-3.345-5.234-8.194-9.491-12.81-10.6a17.456,17.456,0,0,0-3.942-.437c-2.767,0-5.825.53-7.432,2.128C19.3,23.4,39.357,7.537,63.478,2.615A126.677,126.677,0,0,1,121.242,4.15a124.558,124.558,0,0,1,57.691,34.561c.83.865,1.641,1.74,2.427,2.634C201.1,63.067,213.694,90.5,221.65,118.583" transform="translate(0 0)" fill="none" stroke="#000" stroke-miterlimit="10" stroke-width="3"/>
          <path id="Path-8" data-name="Path" d="M0,.49H237.513" transform="translate(6.053 118.107)" fill="none" stroke="#000" stroke-miterlimit="10" stroke-width="3"/>
          <path id="Path-9" data-name="Path" d="M0,.49H26.95" transform="translate(65.846 118.102)" fill="none" stroke="#000" stroke-miterlimit="10" stroke-width="3.22"/>
          <g id="Group-4" data-name="Group" transform="translate(35.081 8.46)">
            <path id="Path-10" data-name="Path" d="M34.361,49.582c-12.5-5.7-19.145-21.421-14.145-34.43C26.177-.354,45.074-2.157,59.049,1.789q4.281,1.2,8.509,2.712c31.421,11.177,59.973,34.381,75.564,63.781,1.315,2.488,2.364,5.044,3.427,7.649a24.118,24.118,0,0,1-20.2,33.176l-87.564,1.025H11.833a11.4,11.4,0,0,1-10.8-7.736c-2.956-8.747.864-15.346,5.694-19.842A31.653,31.653,0,0,1,25.177,74.5l49.192-4.976a2.328,2.328,0,0,0,1.1-4.218Z" transform="translate(18.933 0)" fill="none" stroke="#000" stroke-miterlimit="10" stroke-width="3"/>
            <path id="Path-11" data-name="Path" d="M11.068,0C6.578,2.585,1.962,6.633.418,11.76c-1.777,5.9,2.393,11.269,7.131,14.341" transform="translate(27.561 84.056)" fill="none" stroke="#000" stroke-miterlimit="10" stroke-width="3"/>
            <path id="Path-12" data-name="Path" d="M6.176,0C1.987,3.99-1.644,9.048.778,15.065a11.176,11.176,0,0,0,3.145,4.257" transform="translate(37.269 90.83)" fill="none" stroke="#000" stroke-miterlimit="10" stroke-width="3"/>
            <path id="Path-13" data-name="Path" d="M5.556,0S-4.089,7.178,2.037,11.483" transform="translate(46.107 98.635)" fill="none" stroke="#000" stroke-miterlimit="10" stroke-width="3"/>
            <path id="Path-14" data-name="Path" d="M26.907,13.014l.17.69H11.514C6.427,13.7-.621,12.922.044,7.236S18.926,0,18.926,0" transform="translate(0 96.433)" fill="none" stroke="#000" stroke-miterlimit="10" stroke-width="3"/>
          </g>
        </g>
      </g>
      <path id="Path-15" data-name="Path" d="M68.356,55.968,35.236,60.93,41.008,65l10.8,8.655c1.689,1.191,1.267,4,2.2,5.705a13.311,13.311,0,0,1-20.873,12.7L7.092,73.725A20.1,20.1,0,0,1,.4,65.881a20.354,20.354,0,0,1,16.989-24.3l36.2-5.443-5.34-4.15L31.809,19.181a13.33,13.33,0,0,1-3.456-4.009,13.321,13.321,0,0,1,21.4-12.338l29.329,22.84a19.589,19.589,0,0,1,5.665,6.939A19.683,19.683,0,0,1,68.356,55.968Z" transform="translate(159.018 40.996)" fill="#505050"/>
      <g id="Group-5" data-name="Group" transform="translate(160.711 198.125)">
        <g id="Group-6" data-name="Group" transform="translate(0 0)">
          <path id="Path-16" data-name="Path" d="M4.432,12.027S3.422,3.134,0,0" transform="translate(37.862 28.807)" fill="none" stroke="#000" stroke-miterlimit="10" stroke-width="3"/>
          <path id="Path-17" data-name="Path" d="M0,8.912a26.3,26.3,0,0,1,21.358-.826,6.247,6.247,0,0,0,6.6-1.458L34.717,0" fill="none" stroke="#000" stroke-miterlimit="10" stroke-width="3"/>
          <path id="Path-18" data-name="Path" d="M0,.092,5.645,2.634a.971.971,0,0,0,1.3-.622L7.835,0" transform="translate(21.494 46.598)" fill="none" stroke="#000" stroke-miterlimit="10" stroke-width="3"/>
        </g>
        <path id="Path-19" data-name="Path" d="M.922,0A6.45,6.45,0,0,1,0,6.658" transform="translate(21.494 35.465)" fill="none" stroke="#000" stroke-miterlimit="10" stroke-width="3"/>
        <g id="Group-7" data-name="Group" transform="translate(10.849 30.047)">
          <path id="Path-20" data-name="Path" d="M6.34,6.551c.888-1.317.883-4.5.655-5.778C6.849-.039,5.485-.33,5.34.486,4.942,2.765,2.374,6.269,0,6.551" transform="translate(18.033 16.552)" fill="none" stroke="#000" stroke-miterlimit="10" stroke-width="3"/>
          <ellipse id="Oval-2" data-name="Oval" cx="7.247" cy="7.255" rx="7.247" ry="7.255" transform="translate(5.728 0)" fill="none" stroke="#000" stroke-miterlimit="10" stroke-width="3"/>
          <path id="Path-21" data-name="Path" d="M10.548,0,9.257,3.635A7.24,7.24,0,0,0,0,8.038" transform="translate(0 14.088)" fill="none" stroke="#000" stroke-miterlimit="10" stroke-width="3"/>
        </g>
      </g>
      <ellipse id="Oval-3" data-name="Oval" cx="6.136" cy="6.142" rx="6.136" ry="6.142" transform="translate(178.4 229.284)" fill="#fff" opacity="0.53"/>
      <path id="Path-22" data-name="Path" d="M0,40.183a9.423,9.423,0,0,0,4.675-6.152c.456-2.337-.184-5.122-.733-7.44a35.989,35.989,0,0,0-2.315-7.046,33.864,33.864,0,0,0,10.679.248c1.655-.185,9.558-3.207,4.815-4.68a33.557,33.557,0,0,1-5.626-2.085c-1.4-.724-3.849-2.133-3.937-3.922a2.493,2.493,0,0,1,1.456-2.3,4.849,4.849,0,0,1,4.145.073A10.679,10.679,0,0,1,16.072,8.9c1.5,1.458,2.325,2.916,4.684,2.542a16.919,16.919,0,0,0,4.1-1.458,7.464,7.464,0,0,0,3.544-3.4c1.175-2.736-2.815-5.345-4.98-6.128A6.575,6.575,0,0,0,19.64.145" transform="translate(169.891 203.748)" fill="none" stroke="#000" stroke-miterlimit="10" stroke-width="4.83"/>
      <path id="Path-23" data-name="Path" d="M69.92,60.645,36.8,65.607l5.772,4.072,7.466,5.248A13.335,13.335,0,1,1,34.7,96.742L8.661,78.4a20.1,20.1,0,0,1-6.694-7.843C-3.571,59.047,2.9,43.715,17.374,41.552L46.1,37.247l3.718-.578L33.374,23.859A13.33,13.33,0,1,1,49.737,2.812l29.329,22.84a19.237,19.237,0,0,1,7.228,11.634A19.659,19.659,0,0,1,69.92,60.645Z" transform="translate(157.453 36.318)" fill="none" stroke="#000" stroke-miterlimit="10" stroke-width="3"/>
      <g id="Group-8" data-name="Group" transform="translate(144.718 135.508)">
        <path id="Path-24" data-name="Path" d="M9.96,17.822l-.32-8.47L5.887,13.2A3.435,3.435,0,1,1,.975,8.4L7.7,1.528a5.067,5.067,0,0,1,8.689,3.358l.316,8.64L19.469,10.4a3.442,3.442,0,0,1,5.15,4.568l-5.451,6.157a5.256,5.256,0,0,1-9.208-3.3Z" transform="translate(0 0)" fill="#f5db81"/>
        <path id="Path-25" data-name="Path" d="M2,5.4l3.995-.894L3.834,3.049A1.665,1.665,0,1,1,5.688.284l3.854,2.58A2.455,2.455,0,0,1,8.712,7.3L4.62,8.225,6.353,9.269a1.665,1.665,0,0,1-1.718,2.853l-3.4-2.056A2.542,2.542,0,0,1,2,5.4Z" transform="translate(36.086 27.699)" fill="#f5db81"/>
        <path id="Path-26" data-name="Path" d="M2.792,5.549l.325-2.673L1.744,3.9A1.093,1.093,0,0,1,.438,2.142L2.865.32A1.612,1.612,0,0,1,5.428,1.807L5.1,4.538l1.024-.846A1.094,1.094,0,0,1,7.511,5.383L5.491,7.045a1.67,1.67,0,0,1-2.7-1.5Z" transform="translate(25.191 50.912)" fill="#f5db81"/>
      </g>
      <path id="Path-27" data-name="Path" d="M.689.142l-.2.345A3.45,3.45,0,0,0,0,.234Z" transform="translate(330.286 177.325)" fill="#353642"/>
    </g>
  </g>
</svg>
