<svg xmlns="http://www.w3.org/2000/svg" width="273.535" height="175.333" viewBox="0 0 273.535 175.333">
  <g id="Business_Startup_workflow_error_exhaustion_exhausted_work_laptop_computer_support" data-name="Business, Startup, workflow, error | exhaustion, exhausted, work, laptop, computer, support" transform="translate(1.535 1.61)">
    <g id="Group">
      <path id="Path" d="M134.6,72.171H54.364l54.521-.632c10.079-.877,17.182-10.774,13.352-20.145-.662-1.619.03-2.07-.789-3.631C112.878,31.606,98.018,18.445,81.178,10.8c.417-.079.837-.136,1.266-.194a85.27,85.27,0,0,0-9.671-4.124c-1.753-.626-3.527-1.192-5.3-1.688C58.768,2.337,47,3.459,43.3,13.111a17.374,17.374,0,0,0,8.8,21.44L66.079,39.9c-.118-.175-.224-.351-.332-.536L77.9,44.014a1.447,1.447,0,0,1-.68,2.623L47.7,49.866c-4.255.43-9.584,2.212-12.721,5.144a11.74,11.74,0,0,0-4.2,8.65,44.986,44.986,0,0,0-5.742.808c-2.892.623-5.836,1.7-6.045,3.461-.411,3.54,4.615,4.26,7.782,4.26L6.734,72.11c2.152,0,2.418-.018,3.844-1.44S13.6,68.153,13.6,66l.175-6.9c0-1.422.338-2.572-1.082-2.572H0a2.692,2.692,0,0,0,2.493-1.513.076.076,0,0,0,.018-.039,8.618,8.618,0,0,0,.662-4.484l.148-.526.381-1.4,8.063-4.75a1.932,1.932,0,0,0,.175-.115c4.207-2.575,4.733-7.177,3.291-11.292-.03-.079-.048-.148-.079-.215-.066-.175-.127-.342-.2-.508A15.373,15.373,0,0,0,13.528,29c-2.082-3.256-5.1-5.909-7.976-6.6A11.053,11.053,0,0,0,3.1,22.121C13.089,12.742,24.6,4.406,38.2,1.635a78.868,78.868,0,0,1,35.953.938,77.5,77.5,0,0,1,35.907,21.509c13.2,13.788,19.376,29.9,24.538,48.089Z" transform="translate(123.2 99.942)" fill="#303030"/>
      <path id="Path-2" data-name="Path" d="M23.214,4.121a4.644,4.644,0,0,1-2.2,2.118,10.848,10.848,0,0,1-2.56.908c-1.463.245-1.98-.681-2.913-1.588A6.836,6.836,0,0,0,13.727,4.3a3.019,3.019,0,0,0-2.581-.039,1.561,1.561,0,0,0-.925,1.425c.06,1.11,1.59,1.988,2.454,2.448a21.283,21.283,0,0,0,3.506,1.295c2.953.908-1.964,2.8-3,2.917a21.084,21.084,0,0,1-6.649-.157,22.459,22.459,0,0,1,1.442,4.387,11.757,11.757,0,0,1,.459,4.632A5.891,5.891,0,0,1,5.522,25.04L0,1.978a16.355,16.355,0,0,1,13.1-.43A3.884,3.884,0,0,0,17.2.641l.565-.548a4.082,4.082,0,0,1,2.357.188c1.339.505,3.817,2.13,3.092,3.84Z" transform="translate(100.273 126.538)" fill="#ffd64d"/>
      <path id="Path-3" data-name="Path" d="M108.166,0h-22.8A8.768,8.768,0,0,1,76.65,7.839H0a7.844,7.844,0,0,0,7.822,7.83H108.16a7.862,7.862,0,0,0,7.831-7.83V2.575A2.573,2.573,0,0,0,113.419,0Z" transform="translate(20.99 156.446)" fill="none" stroke="#000" stroke-miterlimit="10" stroke-width="3"/>
      <path id="Path-4" data-name="Path" d="M93.947,3.643a8.724,8.724,0,0,1,1.423,3.1l10.8,45.082a8.481,8.481,0,0,1,.184,2.992,8.768,8.768,0,0,1-8.716,7.839H19.566a8.782,8.782,0,0,1-8.532-6.738L.245,10.835A8.772,8.772,0,0,1,8.777,0H86.839a8.715,8.715,0,0,1,6.718,3.15Z" transform="translate(0 101.616)" fill="none" stroke="#000" stroke-miterlimit="10" stroke-width="3"/>
      <ellipse id="Oval" cx="8.439" cy="9.494" rx="8.439" ry="9.494" transform="translate(42.314 129.729) rotate(-17.5)" fill="#f5db81"/>
      <path id="Path-5" data-name="Path" d="M38.686,5.751C31.8,6.9,26.5,10.057,22.949,16.583c-3.182,5.839-3.554,12.965-.16,18.759L8.932,30.023C.908,26.344-1.915,18.169,1.3,9.772,5.124-.23,17.255-1.392,26.234,1.156c1.828.514,3.654,1.1,5.461,1.749q3.542,1.271,6.99,2.847Z" transform="translate(167.384 104.533)" fill="#353642"/>
      <g id="Group-2" data-name="Group" transform="translate(44.69)">
        <path id="Path-6" data-name="Path" d="M0,101.622a43.072,43.072,0,0,1,21.682-14.91,64.2,64.2,0,1,1,123-35.451,65.726,65.726,0,0,1,1.33,11.827,56.9,56.9,0,0,1,7.595-2.118,56.148,56.148,0,0,1,53.361,92.184" transform="translate(0 0)" fill="none" stroke="#9fa1ab" stroke-miterlimit="10" stroke-width="3" opacity="0.2"/>
        <g id="Group-3" data-name="Group" transform="translate(75.662 98.276)">
          <path id="Path-7" data-name="Path" d="M0,58.174H2.143a3.967,3.967,0,0,0,3.213-1.513.1.1,0,0,0,.021-.039,5.254,5.254,0,0,0,.982-3.649l-.175-1.365-.145-1.1.526-.3L14.8,45.339l.556-.321c4.023-2.369,4.313-6.786,2.735-10.971-.027-.076-.048-.145-.076-.215-.07-.175-.139-.339-.206-.505a19.323,19.323,0,0,0-1.423-2.681c-2.082-3.259-5.1-5.909-7.976-6.6a10.869,10.869,0,0,0-2.454-.272c-1.723,0-3.627.33-4.627,1.325C12.02,14.571,24.5,4.693,39.522,1.628a78.871,78.871,0,0,1,35.965.956A77.551,77.551,0,0,1,111.406,24.1c.517.539,1.022,1.083,1.511,1.64C125.209,39.267,133.049,56.349,138,73.831" transform="translate(0 0)" fill="none" stroke="#000" stroke-miterlimit="10" stroke-width="3"/>
          <path id="Path-8" data-name="Path" d="M0,.49H147.879" transform="translate(3.769 73.35)" fill="none" stroke="#000" stroke-miterlimit="10" stroke-width="3"/>
          <path id="Path-9" data-name="Path" d="M0,.49H16.78" transform="translate(40.997 73.347)" fill="none" stroke="#000" stroke-miterlimit="10" stroke-width="3.22"/>
          <g id="Group-4" data-name="Group" transform="translate(21.842 5.267)">
            <path id="Path-10" data-name="Path" d="M21.394,30.871A17.373,17.373,0,0,1,12.587,9.434C16.3-.221,28.064-1.343,36.765,1.114q2.666.747,5.3,1.688C61.626,9.761,79.4,24.208,89.11,42.513c.819,1.549,1.472,3.141,2.134,4.762A15.016,15.016,0,0,1,78.665,67.931l-54.518.638H7.367A7.1,7.1,0,0,1,.646,63.753C-1.195,58.307,1.184,54.2,4.191,51.4a19.708,19.708,0,0,1,11.485-5.013l30.628-3.1a1.45,1.45,0,0,0,.686-2.626Z" transform="translate(11.788)" fill="none" stroke="#000" stroke-miterlimit="10" stroke-width="3"/>
            <path id="Path-11" data-name="Path" d="M6.891,0C4.1,1.61,1.221,4.13.26,7.322-.846,11,1.75,14.338,4.7,16.251" transform="translate(17.16 52.334)" fill="none" stroke="#000" stroke-miterlimit="10" stroke-width="3"/>
            <path id="Path-12" data-name="Path" d="M3.845,0C1.237,2.484-1.023,5.634.485,9.379a6.958,6.958,0,0,0,1.958,2.65" transform="translate(23.204 56.552)" fill="none" stroke="#000" stroke-miterlimit="10" stroke-width="3"/>
            <path id="Path-13" data-name="Path" d="M3.459,0S-2.546,4.469,1.268,7.15" transform="translate(28.707 61.411)" fill="none" stroke="#000" stroke-miterlimit="10" stroke-width="3"/>
            <path id="Path-14" data-name="Path" d="M16.752,8.1l.106.43H7.169C4,8.532-.387,8.045.027,4.505S11.784,0,11.784,0" transform="translate(0 60.041)" fill="none" stroke="#000" stroke-miterlimit="10" stroke-width="3"/>
          </g>
        </g>
      </g>
      <path id="Path-15" data-name="Path" d="M42.559,34.846,21.938,37.936l3.593,2.535,6.721,5.389c1.052.741.789,2.49,1.372,3.552a8.288,8.288,0,0,1-13,7.909L4.415,45.9A12.513,12.513,0,0,1,.248,41.019,12.672,12.672,0,0,1,10.826,25.891L33.366,22.5l-3.324-2.584L19.8,11.942a8.3,8.3,0,0,1-2.152-2.5A8.294,8.294,0,0,1,30.978,1.764l18.26,14.22a12.2,12.2,0,0,1,3.527,4.321A12.255,12.255,0,0,1,42.559,34.846Z" transform="translate(99.006 25.525)" fill="#505050"/>
      <g id="Group-5" data-name="Group" transform="translate(100.061 123.355)">
        <g id="Group-6" data-name="Group" transform="translate(0 0)">
          <path id="Path-16" data-name="Path" d="M2.759,7.488S2.131,1.952,0,0" transform="translate(23.574 17.936)" fill="none" stroke="#000" stroke-miterlimit="10" stroke-width="3"/>
          <path id="Path-17" data-name="Path" d="M0,5.549a16.376,16.376,0,0,1,13.3-.514,3.89,3.89,0,0,0,4.107-.908L21.615,0" fill="none" stroke="#000" stroke-miterlimit="10" stroke-width="3"/>
          <path id="Path-18" data-name="Path" d="M0,.057,3.515,1.64a.6.6,0,0,0,.81-.387L4.878,0" transform="translate(13.383 29.013)" fill="none" stroke="#000" stroke-miterlimit="10" stroke-width="3"/>
        </g>
        <path id="Path-19" data-name="Path" d="M.574,0A4.016,4.016,0,0,1,0,4.145" transform="translate(13.383 22.081)" fill="none" stroke="#000" stroke-miterlimit="10" stroke-width="3"/>
        <g id="Group-7" data-name="Group" transform="translate(6.755 18.707)">
          <path id="Path-20" data-name="Path" d="M3.947,4.079a6.477,6.477,0,0,0,.408-3.6C4.264-.024,3.415-.206,3.324.3,3.077,1.722,1.478,3.9,0,4.079" transform="translate(11.228 10.305)" fill="none" stroke="#000" stroke-miterlimit="10" stroke-width="3"/>
          <ellipse id="Oval-2" data-name="Oval" cx="4.512" cy="4.517" rx="4.512" ry="4.517" transform="translate(3.566 0)" fill="none" stroke="#000" stroke-miterlimit="10" stroke-width="3"/>
          <path id="Path-21" data-name="Path" d="M6.567,0l-.8,2.263A4.508,4.508,0,0,0,0,5" transform="translate(0 8.771)" fill="none" stroke="#000" stroke-miterlimit="10" stroke-width="3"/>
        </g>
      </g>
      <ellipse id="Oval-3" data-name="Oval" cx="3.82" cy="3.824" rx="3.82" ry="3.824" transform="translate(111.074 142.755)" fill="#fff" opacity="0.53"/>
      <path id="Path-22" data-name="Path" d="M0,25.019a5.867,5.867,0,0,0,2.91-3.83,11.694,11.694,0,0,0-.456-4.632,22.407,22.407,0,0,0-1.442-4.387,21.084,21.084,0,0,0,6.649.154c1.031-.115,5.951-2,3-2.914a20.893,20.893,0,0,1-3.5-1.3c-.87-.451-2.4-1.328-2.451-2.442a1.552,1.552,0,0,1,.907-1.431,3.019,3.019,0,0,1,2.581.045,6.649,6.649,0,0,1,1.813,1.259c.937.908,1.448,1.815,2.916,1.582a10.534,10.534,0,0,0,2.554-.908A4.647,4.647,0,0,0,17.683,4.1c.731-1.7-1.753-3.328-3.1-3.815A4.094,4.094,0,0,0,12.228.09" transform="translate(105.776 126.856)" fill="none" stroke="#000" stroke-miterlimit="10" stroke-width="3"/>
      <path id="Path-23" data-name="Path" d="M43.533,37.759,22.913,40.848l3.593,2.535,4.648,3.268a8.3,8.3,0,1,1-9.547,13.582L5.393,48.814a12.513,12.513,0,0,1-4.168-4.883,12.721,12.721,0,0,1,9.593-18.06L28.7,23.19l2.315-.36L20.779,14.855a8.3,8.3,0,1,1,10.188-13.1l18.26,14.22a11.977,11.977,0,0,1,4.5,7.243A12.24,12.24,0,0,1,43.533,37.759Z" transform="translate(98.032 22.612)" fill="none" stroke="#000" stroke-miterlimit="10" stroke-width="3"/>
      <g id="Group-8" data-name="Group" transform="translate(90.103 84.369)">
        <path id="Path-24" data-name="Path" d="M6.2,11.1,6,5.823l-2.336,2.4A2.138,2.138,0,1,1,.607,5.229L4.793.951A3.155,3.155,0,0,1,10.2,3.042l.2,5.38,1.723-1.945A2.143,2.143,0,0,1,15.328,9.32l-3.394,3.833A3.272,3.272,0,0,1,6.2,11.1Z" transform="translate(0 0)" fill="#f5db81"/>
        <path id="Path-25" data-name="Path" d="M1.244,3.363l2.487-.557L2.387,1.9A1.036,1.036,0,1,1,3.541.177l2.4,1.607a1.529,1.529,0,0,1-.517,2.762l-2.548.575,1.079.651a1.037,1.037,0,0,1-1.07,1.776L.77,6.267a1.583,1.583,0,0,1,.474-2.9Z" transform="translate(22.468 17.246)" fill="#f5db81"/>
        <path id="Path-26" data-name="Path" d="M1.739,3.455l.2-1.664-.855.635A.681.681,0,0,1,.273,1.334L1.784.2a1,1,0,0,1,1.6.926l-.206,1.7L3.812,2.3a.681.681,0,0,1,.864,1.053L3.419,4.387a1.04,1.04,0,0,1-1.68-.932Z" transform="translate(15.684 31.698)" fill="#f5db81"/>
      </g>
      <path id="Path-27" data-name="Path" d="M.429.142.3.357A2.148,2.148,0,0,0,0,.2Z" transform="translate(205.641 110.351)" fill="#353642"/>
    </g>
  </g>
</svg>
