<svg xmlns="http://www.w3.org/2000/svg" width="461.896" height="406.699" viewBox="0 0 461.896 406.699">
  <g id="Finance_e-commerce_startup_workflow_account_information_user_profile_data" data-name="Finance, e-commerce, startup, workflow | account, information, user, profile, data" transform="translate(0 2.86)">
    <g id="Group">
      <path id="Path" d="M3.669,124.712S-23.957,42.966,72.4,52.943s50.321-26.2,86.734-48.658,143.7,47.4,98.815,114.776,71.732,5.743,96.059,107.062c15.012,62.525-22.233,108.545-52.959,134.632" transform="translate(88.71 0)" fill="none" stroke="#9fa1ab" stroke-miterlimit="10" stroke-width="5.47" opacity="0.21"/>
      <path id="Shape" d="M164.421,222.593l-11.075-28.448L114.27,93.914H28.244A28.227,28.227,0,0,1,.915,58.558L21.7.467C23.138,4.5,25.919,20.949,50.21,17.845c3.5,15.935,8.663,31.46,16.6,45.7,2.787,5.014,6.359,10.5,11.7,13.118a12.64,12.64,0,0,0,1.683.673c5.353,1.734,11.943.318,17.013-1.345,12.3-4.018,24.814-8.853,36.043-15.309,9.72-5.553,21.288-14.58,20.015-26.595v-.169a16.936,16.936,0,0,0-11.6-14.632A78.1,78.1,0,0,1,129.907,34.17a40.093,40.093,0,0,1-8.591-12.317,58.712,58.712,0,0,1-3.479-10.264C142.1,5.558,172.381.262,204.57,0c-3.8,3.5-6.5,8.514-5.707,13.811.693,4.7,4.527,9.058,8.479,11.532,6.564,4.116,15.325,3.778,22.4,1.16a37.982,37.982,0,0,0,17.254-13.379,23.157,23.157,0,0,0,3.988-9.659V3.408a224.821,224.821,0,0,1,32.6,7.827c41.658,13.431,67.3,50.957,74.54,92.892,3.013,17.557,3.238,35.976-.564,53.456-2.151,9.813-5.26,20.852-12.482,28.227a19.226,19.226,0,0,1-11.322,5.645,15.472,15.472,0,0,0,1.606-6.831,15.853,15.853,0,0,0-15.72-15.91l-10.028-.056-15.012-.077a11.193,11.193,0,0,0-1.386-.057H283.108l-8.514-.036-46.282-.246c-.6,0-1.216.041-1.832.1.39.057.806.113,1.181.205-.416,0-.826.036-1.257.072a15.91,15.91,0,0,1,13.965,15.423v.3a5.411,5.411,0,0,1,0,.58,15.91,15.91,0,0,1-14.016,14.842,11.545,11.545,0,0,0,1.216.092,10.219,10.219,0,0,1-1.144.19c.621.057,1.216.113,1.837.113h-.58c-8.217,0-13.271,5.05-13.271,11.209A11.254,11.254,0,0,0,217.7,219.3c2.038,2.043,4.845,3.3,9.977,3.3Z" transform="translate(41.04 178.512)" fill="#ffc500"/>
      <path id="Path-2" data-name="Path" d="M0,9.813S11.748,8.386,16.146,0L12.312,21.509S59.046,5.6,67.616,3.546c0,0,2.761,17.8,13.754,22.582L92.713,11.706s14.221,3.593,10.331,22.972-57.7,35.576-66.821,35.2S17.275,63.89,7.216,33.718Z" transform="translate(91.23 186.554)" fill="#353642"/>
      <g id="Group-2" data-name="Group" transform="translate(41.04 122.108)">
        <path id="Path-3" data-name="Path" d="M21.278,0c2.977,4.845,5.969,9.679,9.058,14.452,1.9,2.941,5.373,7.134,1.683,10.208a7.513,7.513,0,0,1-4.162,1.54c-2.371.21-4.86-.359-6.3-2.4L14.37,11.9A11.034,11.034,0,0,0,0,7.719" transform="translate(48.049 26.344)" fill="none" stroke="#000" stroke-miterlimit="10" stroke-width="5.47"/>
        <path id="Path-4" data-name="Path" d="M27.149,15.658c1.878,4.465.606,7.344-1.591,8.791a8.166,8.166,0,0,1-10.947-2.212L0,0" transform="translate(69.353 26.37)" fill="none" stroke="#000" stroke-miterlimit="10" stroke-width="5.47"/>
        <path id="Path-5" data-name="Path" d="M81.7,19.878c5.317,6.467,12.025,18.476,15.735,23.49s9.448,1.991,9.448,1.991c4.66-2.51,3.87-6.672,1.832-11.727C103.692,21.223,96.528,12.97,88.537,7.561,63.774-9.191,38.37,3.168,30.81,32.082L.915,114.962a28.227,28.227,0,0,0,27.329,35.356H114.27L164.437,279" transform="translate(0 0)" fill="none" stroke="#000" stroke-miterlimit="10" stroke-width="5.47"/>
        <path id="Path-6" data-name="Path" d="M34.976,25.733c6.159-2.135,5.876-11.958-2.864-15.273C22.458,6.795,5.317,1.612,1.011.318A.174.174,0,0,0,.919.282C.616.19.405.113.241.077L0,0" transform="translate(77.436 2.208)" fill="none" stroke="#000" stroke-miterlimit="10" stroke-width="5.47"/>
        <path id="Path-7" data-name="Path" d="M35.964,27.025C30.576,20.548,15.826,16.879,6.2,15.1A7.6,7.6,0,0,1,.039,8.365,7.739,7.739,0,0,1,.414,5.09,7.652,7.652,0,0,1,8.4.04C24.828,1.7,41.764,6.871,54.291,18c0,0,60.729,46.344,67.981,50.855,2.992,1.817,5.784-.328,3.757-3.182l-.636-1.088a97.88,97.88,0,0,0-12.6-17.059" transform="translate(167.441 99.13)" fill="none" stroke="#000" stroke-miterlimit="10" stroke-width="5.47"/>
        <path id="Path-8" data-name="Path" d="M142.028,7.185C65.651,7.821,0,36.736,0,36.736L6.554,0" transform="translate(62.501 49.213)" fill="none" stroke="#000" stroke-miterlimit="10" stroke-width="5.47"/>
      </g>
      <path id="Path-9" data-name="Path" d="M12.1.246S3.785-1.638,1.573,5.024-2.948,22.283,12.957,22.909s6.564-2.5,5.645-7.647S12.1.246,12.1.246Z" transform="translate(352.09 378.195)" fill="#353642"/>
      <path id="Path-10" data-name="Path" d="M17.942,3S8.966-3.808.883,3.09A4.906,4.906,0,0,0,0,4.116" transform="translate(219.164 253.719)" fill="none" stroke="#000" stroke-miterlimit="10" stroke-width="5.47"/>
      <g id="Group-3" data-name="Group" transform="translate(86.015 138.385)" opacity="0.77">
        <path id="Path-11" data-name="Path" d="M38.958,32.305a8.161,8.161,0,0,0,10.947,2.207c2.171-1.437,3.444-4.3,1.612-8.725.334.488.636.919.934,1.314,3.705,5.035,9.448,2,9.448,2,4.66-2.51,3.875-6.672,1.837-11.732A64.393,64.393,0,0,0,55.951,3.257C58.029,1.312,60.5-.654,63.1.209c2.807.934,3.593,4.455,3.911,7.39.149,1.365.3,2.715.447,4.08l2.248,20.1a152.664,152.664,0,0,0,3.125,19.954,58.728,58.728,0,0,0,3.48,10.264A40.093,40.093,0,0,0,84.9,74.312,78.117,78.117,0,0,0,96.654,59.429a16.936,16.936,0,0,1,11.6,14.632v.169c1.273,12.014-10.3,21.042-20.015,26.595C77.013,107.281,64.5,112.116,52.2,116.134c-5.071,1.663-11.66,3.079-17.013,1.345a12.647,12.647,0,0,1-1.683-.672c-5.337-2.617-8.909-8.1-11.7-13.118C8.463,79.7,2.92,52.146,0,24.864c5.84-.806,11.66-1.7,17.408-2.941a.064.064,0,0,0,.036.056L24.07,32.967l.544.914c1.437,2.053,3.926,2.6,6.3,2.4a7.375,7.375,0,0,0,4.157-1.54c3.685-3.079.226-7.257-1.683-10.2" transform="translate(0 0)" fill="#fff"/>
        <g id="Group-4" data-name="Group" transform="translate(0 0)">
          <path id="Path-12" data-name="Path" d="M38.958,32.305a8.161,8.161,0,0,0,10.947,2.207c2.171-1.437,3.444-4.3,1.612-8.725.334.488.636.919.934,1.314,3.705,5.035,9.448,2,9.448,2,4.66-2.51,3.875-6.672,1.837-11.732A64.393,64.393,0,0,0,55.951,3.257C58.029,1.312,60.5-.654,63.1.209c2.807.934,3.593,4.455,3.911,7.39.149,1.365.3,2.715.447,4.08l2.248,20.1a152.664,152.664,0,0,0,3.125,19.954,58.728,58.728,0,0,0,3.48,10.264A40.093,40.093,0,0,0,84.9,74.312,78.117,78.117,0,0,0,96.654,59.429a16.936,16.936,0,0,1,11.6,14.632v.169c1.273,12.014-10.3,21.042-20.015,26.595C77.013,107.281,64.5,112.116,52.2,116.134c-5.071,1.663-11.66,3.079-17.013,1.345a12.647,12.647,0,0,1-1.683-.672c-5.337-2.617-8.909-8.1-11.7-13.118C8.463,79.7,2.92,52.146,0,24.864c5.84-.806,11.66-1.7,17.408-2.941a.064.064,0,0,0,.036.056L24.07,32.967l.544.914c1.437,2.053,3.926,2.6,6.3,2.4a7.375,7.375,0,0,0,4.157-1.54c3.685-3.079.226-7.257-1.683-10.2" transform="translate(0 0)" fill="#303030"/>
          <path id="Path-13" data-name="Path" d="M34.013,28.018c2.274,3.079,6.159,2.689,9.371.58,1.94-1.283,3.531-.908,1.894-4.865.3.431.344-1.026.611-.7,3.31,4.5.041-1.858.041-1.858C50.549,27.007,60.6,21.51,58.761,17c-1.95-4.86-4-12.045-6.605-15.638,2.053-1.94,1.658-1.653,4.27-.108a5.384,5.384,0,0,1,2.458,4.131c.21,1.955.421,3.829.631,5.738l2,17.963a136.338,136.338,0,0,0,2.792,17.809,52.158,52.158,0,0,0,3.11,9.156c1.837,4.06,7.739,10.819,10.962,13.913,4.008-3.977,8.812-11.291,11.753-16.151,5.645,1.735,5.4,7.134,5.8,13.031V67c1.139,10.721-9.187,18.773-17.839,23.736C68.065,96.5,56.893,100.808,45.915,104.4c-4.527,1.488-10.408,2.771-15.186,1.2a10.931,10.931,0,0,1-1.5-.6c-4.763-2.34-7.955-7.231-10.444-11.712C7.885,73.72,2.83,51.5.049,29.229a6.477,6.477,0,0,1,5.42-7.185c3.125-.513,6.241-1.026,9.335-1.714l.087.041L20.8,30.179c1.288,1.822,1.5.4,3.618.21,1.339-.118,3.936-.38,4.973-1.247,3.29-2.741,1.432-3.875-.272-6.5" transform="translate(6.521 5.914)" fill="#303030"/>
        </g>
      </g>
      <path id="Path-14" data-name="Path" d="M17.3,1.654S.257-3.95,0,5.472" transform="translate(218.723 264.967)" fill="none" stroke="#000" stroke-miterlimit="10" stroke-width="5.47"/>
      <path id="Path-15" data-name="Path" d="M33.761,99.6.335,13.965A11.239,11.239,0,0,1,11.241,0H144.011a13.272,13.272,0,0,1,12.907,10.172L193.51,95.787a11.239,11.239,0,0,1-10.926,13.857H46.638A13.267,13.267,0,0,1,33.761,99.6Z" transform="translate(49.698 263.008)" fill="#fff" opacity="0.54"/>
      <path id="Path-16" data-name="Path" d="M23.056,39.7a6.377,6.377,0,0,1,1.714,6.159,4.8,4.8,0,0,1-6.092,3.459c-8.417-2.91-16-7.852-17.845-16.254A40.821,40.821,0,0,1,.274,20.126,53.11,53.11,0,0,1,2.615,8.009c2.053-5.84,8.34-9.91,14.442-7.1" transform="translate(218.515 241.373)" fill="none" stroke="#000" stroke-miterlimit="10" stroke-width="5.47"/>
      <path id="Path-17" data-name="Path" d="M33.761,99.6.335,13.965A11.239,11.239,0,0,1,11.241,0H144.011a13.272,13.272,0,0,1,12.907,10.172L193.51,95.787a11.239,11.239,0,0,1-10.926,13.857H46.638A13.267,13.267,0,0,1,33.761,99.6Z" transform="translate(49.698 263.008)" fill="#ffc500"/>
      <path id="Path-18" data-name="Path" d="M33.761,99.6.335,13.965A11.239,11.239,0,0,1,11.241,0H144.011a13.272,13.272,0,0,1,12.907,10.172L193.51,95.787a11.239,11.239,0,0,1-10.926,13.857H46.638A13.267,13.267,0,0,1,33.761,99.6Z" transform="translate(49.698 263.008)" fill="none" stroke="#000" stroke-linecap="square" stroke-linejoin="round" stroke-miterlimit="10" stroke-width="5.47"/>
      <path id="Path-19" data-name="Path" d="M31.148,91.917.308,12.882A10.372,10.372,0,0,1,10.372,0H132.857a12.24,12.24,0,0,1,11.907,9.382l33.765,78.989a10.372,10.372,0,0,1-10.085,12.784H43.023a12.24,12.24,0,0,1-11.876-9.238Z" transform="translate(57.203 267.242)" fill="#ffc500"/>
      <g id="Group-5" data-name="Group" transform="translate(0 138.37)">
        <path id="Path-20" data-name="Path" d="M0,0,23.485,54.345" transform="translate(350.486 208.39)" fill="none" stroke="#000" stroke-miterlimit="10" stroke-width="5.47"/>
        <path id="Path-21" data-name="Path" d="M461.9.49H0" transform="translate(0 262.245)" fill="none" stroke="#000" stroke-miterlimit="10" stroke-width="5.47"/>
        <path id="Path-22" data-name="Path" d="M12.733,0C8.925,3.762,3.238,3.757,0,.277" transform="translate(230.722 17.458)" fill="none" stroke="#000" stroke-miterlimit="10" stroke-width="5.47"/>
        <path id="Path-23" data-name="Path" d="M0,3.257C2.079,1.312,4.547-.654,7.149.209c2.807.934,3.593,4.455,3.911,7.39q1.35,12.1,2.694,24.178c1.139,10.264,2.34,20.775,6.605,30.208A40.093,40.093,0,0,0,28.951,74.3" transform="translate(141.966 0)" fill="none" stroke="#000" stroke-miterlimit="10" stroke-width="5.47"/>
        <path id="Path-24" data-name="Path" d="M73.139,14.8v-.169A16.936,16.936,0,0,0,61.535,0,78.117,78.117,0,0,1,49.782,14.883,80.3,80.3,0,0,1,6.343,37.152c.79,3.146,2.417,6.01,3.541,9.038s1.683,6.533.318,9.453C8.478,59.369,3.531,58.881.092,58.055H0" transform="translate(121.135 59.439)" fill="none" stroke="#000" stroke-miterlimit="10" stroke-width="5.47"/>
        <path id="Path-25" data-name="Path" d="M17.408,0C11.66,1.237,5.84,2.135,0,2.941,2.92,30.223,8.442,57.773,21.807,81.766c2.787,5.014,6.359,10.5,11.7,13.118a12.647,12.647,0,0,0,1.683.672c5.353,1.76,11.943.318,17.013-1.345C64.517,90.188,77.013,85.358,88.243,78.9c9.695-5.558,21.263-14.581,20.015-26.595a17.578,17.578,0,0,0-.806-3.89" transform="translate(86.025 21.933)" fill="none" stroke="#000" stroke-miterlimit="10" stroke-width="5.47"/>
      </g>
      <path id="Path-26" data-name="Path" d="M0,20.27A17.639,17.639,0,0,0,15.576,33.727a9.294,9.294,0,0,1,1.93-4.034c4.106-4.84,5.856,4.239,18.989-2.279,18.2-9.053,25.107-3.859,25.107-3.859.606.452.513,4.619.616,5.379.513,4.326.975,8.632,1.483,12.954.308,2.638.611,5.255.9,7.873a12.76,12.76,0,0,1,.821-1.288c1.658-5.866,4.619-12.795,11-9.813a9.13,9.13,0,0,1,3.285,2.7c4.234,5.563,1.026,10.937-3.4,14.914a22.972,22.972,0,0,1-3.7,3.31c.729,1.509,3.705,7.5,3.705,7.519.308.606,10.711-11.168,11.486-12.451a29.88,29.88,0,0,0,1.837-9.808c.169-13.77-5.435-29.8-16.587-37.7C70.28,5.2,71.163,3.314,70.993.655A.713.713,0,0,0,69.715.28C66.22,4.3,57.568,3.9,57.568,3.9c-30.033-7.524-40.128,5.83-46.19,8.211a11.368,11.368,0,0,1-7.7.128A4.619,4.619,0,0,1,.534,15.836l.154,1.391A4.619,4.619,0,0,1,0,20.27Z" transform="translate(199.549 85.611)" fill="#ffc500"/>
      <path id="Path-27" data-name="Path" d="M.47.49H.491" transform="translate(211.622 125.263)" fill="#3fbdf1"/>
      <path id="Path-28" data-name="Path" d="M16.213,40.106A17.639,17.639,0,0,1,.636,26.65,23.757,23.757,0,0,1,0,22.451l.236-.026a3.474,3.474,0,0,0,.944-.205,4.619,4.619,0,0,0,3.146-3.593,4.347,4.347,0,0,0,.056-1.4l-.77-6.795s5.43,4.039,11.455,1.678S31.209-3.6,61.258,3.9c0,0,6.785.4,10.264-3.623A.713.713,0,0,1,72.8.655c.18,2.664,1.165,4.547,3.936,6.5,11.152,7.9,16.757,23.926,16.582,37.7A32.253,32.253,0,0,1,88.438,61.04C87.663,62.323,77.26,74.1,76.952,73.491c0,0-2.977-6.01-3.705-7.519l-.174-.334.334-.221a34.55,34.55,0,0,0,3.541-2.756c4.424-3.977,7.637-9.351,3.4-14.914a9.13,9.13,0,0,0-3.285-2.7c-6.4-2.982-9.346,3.947-11,9.813a15.945,15.945,0,0,0-.59,3.439c-.077-.719-.154-1.411-.231-2.13-.287-2.617-.59-5.235-.9-7.873-.513-4.321-1-8.627-1.483-12.954-.077-.739,0-4.927-.616-5.379,0,0-6.913-5.194-25.107,3.859C24,40.337,22.253,31.253,18.147,36.1a9.294,9.294,0,0,0-1.93,4.034,10.264,10.264,0,0,0-.18,1.442.616.616,0,0,0,0,.19c-.062,1.062-.082,2.12-.108,3.156-.1,10,1,20.452,4.927,29.741,4.773,11.26,17.4,22.366,30.536,17.116a42.419,42.419,0,0,0,11.152-7.118" transform="translate(198.933 79.253)" fill="none" stroke="#000" stroke-miterlimit="10" stroke-width="5.47"/>
      <ellipse id="Oval" cx="2.494" cy="3.018" rx="2.494" ry="3.018" transform="translate(219.853 138.822) rotate(-18.5)"/>
      <ellipse id="Oval-2" data-name="Oval" cx="2.494" cy="3.018" rx="2.494" ry="3.018" transform="translate(239.394 138.198) rotate(-18.5)"/>
      <g id="Group-6" data-name="Group" transform="translate(214.284 128.621)">
        <path id="Path-29" data-name="Path" d="M21.92,15.85s-6.5,3.69-6.9-.139c-.123-1.18-1.714-12.743-1.714-12.743S8.052-2.6,0,1.516" transform="translate(0 2.041)" fill="none" stroke="#000" stroke-miterlimit="10" stroke-width="5.47"/>
        <path id="Path-30" data-name="Path" d="M0,1.772S10.5-3.473,17.449,4.086" transform="translate(20.457 0)" fill="none" stroke="#000" stroke-miterlimit="10" stroke-width="5.47"/>
        <path id="Path-31" data-name="Path" d="M4.638,0,5.844,6.189C2.041,9.695-.649,14.719.137,20.01c.7,4.691,4.537,9.058,8.473,11.517,6.579,4.106,15.33,3.782,22.412,1.17a38.182,38.182,0,0,0,17.254-13.38,23.177,23.177,0,0,0,3.983-9.654V9.6" transform="translate(25.447 43.696)" fill="none" stroke="#000" stroke-miterlimit="10" stroke-width="5.47"/>
        <path id="Path-32" data-name="Path" d="M0,0,2.351,11.178" transform="translate(31.291 49.886)" fill="none" stroke="#000" stroke-miterlimit="10" stroke-width="5.47"/>
        <path id="Path-33" data-name="Path" d="M45.507,0l3.551,23.582a9.751,9.751,0,0,0,9.654,8.288,224.846,224.846,0,0,1,32.62,7.821c41.658,13.436,67.3,50.962,74.54,92.892,3.013,17.557,3.238,35.971-.544,53.431-2.15,9.828-5.26,20.867-12.481,28.227-9.376,9.6-23.767,5.645-34.847,1.309-34.4-13.38-63.013-37.183-87.719-64.434C17.07,136.541,0,124.861,0,124.861" transform="translate(19.025 21.428)" fill="none" stroke="#000" stroke-miterlimit="10" stroke-width="5.47"/>
      </g>
      <path id="Path-34" data-name="Path" d="M8.976,32.575C5.116,32.54,1.755,29.424.888,25.088-.827,16.558-1.278,3.368,11.229.489,26.856-3.1,38.876,13.915,44.768,24.672c1.981,3.593-.262,8.211-3.952,8.211Z" transform="translate(90.742 308.893)" fill="#f5db81"/>
      <ellipse id="Oval-3" data-name="Oval" cx="7.216" cy="10.639" rx="7.216" ry="10.639" transform="translate(87.082 288.423) rotate(-33.64)" fill="#f5db81"/>
      <path id="Path-35" data-name="Path" d="M93.96,31.968c-.241.036-.513.072-.749.128h-.092l-36.505-.19L1.837,31.624H1.216A11.8,11.8,0,0,1,0,31.532,15.874,15.874,0,0,0,14.016,16.674a5.425,5.425,0,0,0,0-.58v-.3A15.879,15.879,0,0,0,1.309.3C.934.21.523.154.128.1.749.041,1.365,0,1.966,0L48.242.246l8.519.036L68.253.339A15.869,15.869,0,0,1,82.679,16.094a14.6,14.6,0,0,1-.169,2.227A15.869,15.869,0,0,1,66.877,31.907H94.683c-1.6,0-1.155,0-.724.062Z" transform="translate(267.74 346.755)" fill="#303030"/>
      <path id="Path-36" data-name="Path" d="M32.189,19.143a11.173,11.173,0,0,0,7.96,3.295H13.267c-5.132,0-7.934-1.252-9.977-3.295A11.291,11.291,0,0,1,0,11.209C0,5.05,5.05,0,13.267,0H40.149a11.209,11.209,0,0,0-7.934,19.143Z" transform="translate(255.464 378.667)" fill="#fee183"/>
      <path id="Path-37" data-name="Path" d="M42.145,16.038a15.474,15.474,0,0,1-1.612,6.831,14.914,14.914,0,0,1-3.049,4.306,15.812,15.812,0,0,1-7.56,4.172,16.017,16.017,0,0,1-3.593.411c.246-.056.513-.092.749-.128-.431-.041-.878-.056.729-.056H0a15.869,15.869,0,0,0,15.643-13.59,14.6,14.6,0,0,0,.169-2.227A15.869,15.869,0,0,0,1.381,0L16.392.077,26.42.133a15.858,15.858,0,0,1,15.725,15.9Z" transform="translate(334.289 347.094)" fill="#ffc500"/>
      <g id="Group-7" data-name="Group" transform="translate(255.464 346.76)">
        <path id="Path-38" data-name="Path" d="M109.059,16.367A15.848,15.848,0,0,1,93.149,32.1L1.837,31.625c-.611,0-1.221-.046-1.837-.108A15.822,15.822,0,0,0,14.041,15.878,15.822,15.822,0,0,0,.164.093,16.936,16.936,0,0,1,2,0L93.313.472a15.853,15.853,0,0,1,15.746,15.894Z" transform="translate(11.912 0)" fill="none" stroke="#000" stroke-linecap="square" stroke-linejoin="round" stroke-miterlimit="10" stroke-width="5.47"/>
        <path id="Path-39" data-name="Path" d="M82.623,15.807A15.848,15.848,0,0,1,66.805,31.624H1.837A18.368,18.368,0,0,1,0,31.522,15.822,15.822,0,0,0,13.957,15.81,15.822,15.822,0,0,0,0,.1C.611.041,1.227,0,1.837,0H66.805A15.853,15.853,0,0,1,82.623,15.807Z" transform="translate(12.004 0.277)" fill="none" stroke="#000" stroke-linecap="square" stroke-linejoin="round" stroke-miterlimit="10" stroke-width="5.47"/>
        <path id="Path-40" data-name="Path" d="M0,11.224a11.193,11.193,0,0,0,3.285,7.924c2.053,2.053,4.84,3.3,9.977,3.3h93.37c-1.606,0-1.17-.031-.734-.072a11.229,11.229,0,0,1,0-22.3c-.436-.041-.872-.072.734-.072H13.262C5.04.005,0,5.055,0,11.224Z" transform="translate(0 31.897)" fill="none" stroke="#000" stroke-linecap="square" stroke-linejoin="round" stroke-miterlimit="10" stroke-width="5.47"/>
        <path id="Path-41" data-name="Path" d="M0,11.224A11.25,11.25,0,0,0,11.224,22.448H75.7c.431,0,.867-.031,1.3-.072a11.229,11.229,0,0,1,0-22.3C76.567.031,76.131,0,75.7,0H11.224A11.255,11.255,0,0,0,0,11.224Z" transform="translate(28.894 31.897)" fill="none" stroke="#000" stroke-linecap="square" stroke-linejoin="round" stroke-miterlimit="10" stroke-width="5.47"/>
      </g>
      <path id="Path-42" data-name="Path" d="M35.274,8.2H6.473A6.8,6.8,0,0,1,.263,4.137,2.925,2.925,0,0,1,2.972,0H33.591c-1.442,2.428-.708,5.8,1.683,8.2Z" transform="translate(144.567 296.044)" fill="#f5db81"/>
      <path id="Path-43" data-name="Path" d="M21.045,5.25a2.966,2.966,0,0,1-2.961,2.961H2.42C.029,5.815-.705,2.443.737,0H14.568a6.8,6.8,0,0,1,6.215,4.044,3.161,3.161,0,0,1,.262,1.206Z" transform="translate(177.421 296.029)" fill="#d6a90d"/>
      <path id="Path-44" data-name="Path" d="M13.839,10.955a3.079,3.079,0,0,1-.282.446c-2.053,2.807-6.513,3.079-9.977.544a10.732,10.732,0,0,1-1.16-.991C.029,8.559-.705,5.187.737,2.744A3.079,3.079,0,0,1,1.019,2.3C3.072-.53,7.511-.782,10.976,1.733a10.357,10.357,0,0,1,1.175,1.026c2.371,2.386,3.11,5.738,1.688,8.2Z" transform="translate(177.421 293.29)" fill="#303030"/>
      <path id="Path-45" data-name="Path" d="M34.868,5.255a2.977,2.977,0,0,1-2.977,2.956H1.668C3.125,5.758,2.4,2.412,0,0H28.391a6.79,6.79,0,0,1,6.215,4.06,2.977,2.977,0,0,1,.262,1.2Z" transform="translate(170.84 314.104)" fill="#d6a90d"/>
      <path id="Path-46" data-name="Path" d="M20.7,8.2H6.477A6.79,6.79,0,0,1,.262,4.152,3.028,3.028,0,0,1,0,2.956,2.951,2.951,0,0,1,2.956,0H19.03c2.4,2.4,3.141,5.743,1.668,8.2Z" transform="translate(151.81 314.119)" fill="#f5db81"/>
      <path id="Path-47" data-name="Path" d="M13.806,10.965a1.966,1.966,0,0,1-.262.452c-2.053,2.823-6.5,3.079-9.956.559a10.418,10.418,0,0,1-1.18-1.026C.031,8.553-.7,5.207.724,2.738a3.408,3.408,0,0,1,.282-.452C3.059-.521,7.519-.793,10.978,1.747a9.751,9.751,0,0,1,1.16.991c2.4,2.428,3.141,5.774,1.668,8.227Z" transform="translate(158.702 311.351)" fill="#303030"/>
      <path id="Path-48" data-name="Path" d="M24.572,8.2H6.476A6.81,6.81,0,0,1,.261,4.152,2.941,2.941,0,0,1,2.976,0H22.889c-1.427,2.458-.693,5.8,1.683,8.2Z" transform="translate(158.005 332.066)" fill="#d6a90d"/>
      <path id="Path-49" data-name="Path" d="M31.735,5.276a2.951,2.951,0,0,1-2.956,2.936H2.41C.034,5.815-.7,2.469.726,0H25.258a6.79,6.79,0,0,1,6.215,4.06,3.079,3.079,0,0,1,.262,1.216Z" transform="translate(180.167 332.051)" fill="#f5db81"/>
      <path id="Path-50" data-name="Path" d="M13.824,10.953a3.408,3.408,0,0,1-.282.452c-2.053,2.823-6.492,3.079-9.956.559A10.824,10.824,0,0,1,2.41,10.937C.034,8.54-.7,5.194.726,2.726A2.9,2.9,0,0,1,1,2.274C3.056-.533,7.516-.775,10.981,1.735a9.751,9.751,0,0,1,1.16.991c2.392,2.428,3.12,5.794,1.683,8.227Z" transform="translate(180.172 329.31)" fill="#303030"/>
      <path id="Path-51" data-name="Path" d="M.059,0,.51.128.341.785A8.263,8.263,0,0,1,.059,0Z" transform="translate(57.221 176.644)" fill="#353642"/>
      <ellipse id="Oval-4" data-name="Oval" cx="12.748" cy="15.278" rx="12.748" ry="15.278" transform="translate(116.758 191.974) rotate(-16.36)" fill="#ffd02d"/>
    </g>
  </g>
</svg>
