<svg xmlns="http://www.w3.org/2000/svg" width="293.896" height="259.448" viewBox="0 0 293.896 259.448">
  <g id="Finance_e-commerce_startup_workflow_account_information_user_profile_data" data-name="Finance, e-commerce, startup, workflow | account, information, user, profile, data" transform="translate(0 2.814)">
    <g id="Group">
      <path id="Path" d="M2.335,79.326s-17.578-52,43.735-45.65,32.018-16.668,55.187-30.95,91.434,30.151,62.874,73.006,45.642,3.653,61.12,68.1c9.552,39.771-14.146,69.043-33.7,85.637" transform="translate(56.445 0)" fill="none" stroke="#9fa1ab" stroke-miterlimit="10" stroke-width="5.47" opacity="0.21"/>
      <path id="Shape" d="M104.618,141.586l-7.047-18.095L72.708,59.736H17.971A17.956,17.956,0,0,1,.582,37.247L13.8.3c.918,2.566,2.688,13.028,18.143,11.054A106.058,106.058,0,0,0,42.511,40.42c1.773,3.19,4.046,6.679,7.442,8.344a8.044,8.044,0,0,0,1.071.428c3.406,1.1,7.6.2,10.825-.855A122.566,122.566,0,0,0,84.784,38.6c6.185-3.532,13.545-9.274,12.735-16.916v-.108a10.773,10.773,0,0,0-7.383-9.307,49.683,49.683,0,0,1-7.478,9.467A25.5,25.5,0,0,1,77.191,13.9a37.338,37.338,0,0,1-2.214-6.529A239.983,239.983,0,0,1,130.164,0c-2.417,2.226-4.134,5.416-3.631,8.785.441,2.99,2.88,5.762,5.395,7.335,4.177,2.618,9.751,2.4,14.251.738a24.166,24.166,0,0,0,10.979-8.51A14.727,14.727,0,0,0,159.694,2.2V2.168a143.088,143.088,0,0,1,20.742,4.978c26.506,8.543,42.821,32.413,47.428,59.087a89.689,89.689,0,0,1-.359,34c-1.368,6.242-3.347,13.264-7.942,17.955a12.235,12.235,0,0,1-7.2,3.591,9.839,9.839,0,0,0,1.022-4.345,10.086,10.086,0,0,0-10-10.12L197,107.28l-9.552-.049a7.124,7.124,0,0,0-.882-.036h-6.43l-5.417-.023-29.448-.156c-.379,0-.774.026-1.166.062.248.036.513.072.751.131-.265,0-.526.023-.8.046a10.121,10.121,0,0,1,8.886,9.81v.189a3.438,3.438,0,0,1,0,.369,10.121,10.121,0,0,1-8.918,9.441,7.348,7.348,0,0,0,.774.059,6.5,6.5,0,0,1-.728.121c.395.036.774.072,1.169.072h-.369c-5.228,0-8.444,3.212-8.444,7.129a7.157,7.157,0,0,0,2.1,5.047c1.3,1.3,3.083,2.1,6.348,2.1Z" transform="translate(26.113 113.547)" fill="#ffc500"/>
      <path id="Path-2" data-name="Path" d="M0,6.242S7.475,5.334,10.273,0L7.834,13.681S37.57,3.562,43.023,2.256c0,0,1.757,11.324,8.752,14.364l7.217-9.173s9.049,2.285,6.573,14.612S28.854,44.687,23.048,44.449s-12.056-3.81-18.457-23Z" transform="translate(58.048 118.663)" fill="#353642"/>
      <g id="Group-2" data-name="Group" transform="translate(26.113 77.67)">
        <path id="Path-3" data-name="Path" d="M13.539,0c1.894,3.082,3.8,6.157,5.764,9.193,1.212,1.871,3.419,4.538,1.071,6.493a4.782,4.782,0,0,1-2.648.979,4.257,4.257,0,0,1-4.01-1.525L9.143,7.567A7.022,7.022,0,0,0,0,4.91" transform="translate(30.573 16.757)" fill="none" stroke="#000" stroke-miterlimit="10" stroke-width="3"/>
        <path id="Path-4" data-name="Path" d="M17.275,9.96c1.2,2.84.385,4.671-1.012,5.592A5.2,5.2,0,0,1,9.3,14.145L0,0" transform="translate(44.128 16.773)" fill="none" stroke="#000" stroke-miterlimit="10" stroke-width="3"/>
        <path id="Path-5" data-name="Path" d="M51.981,12.644c3.383,4.113,7.651,11.752,10.012,14.941s6.012,1.267,6.012,1.267c2.965-1.6,2.462-4.244,1.166-7.459C65.977,13.5,61.419,8.25,56.334,4.809,40.578-5.846,24.414,2.015,19.6,20.407L.582,73.125A17.956,17.956,0,0,0,17.971,95.613H72.708l31.92,81.853" transform="translate(0 0)" fill="none" stroke="#000" stroke-miterlimit="10" stroke-width="3"/>
        <path id="Path-6" data-name="Path" d="M22.254,16.368c3.919-1.358,3.739-7.606-1.822-9.715C14.29,4.322,3.383,1.025.643.2A.111.111,0,0,0,.585.18C.392.121.258.072.153.049L0,0" transform="translate(49.271 1.404)" fill="none" stroke="#000" stroke-miterlimit="10" stroke-width="3"/>
        <path id="Path-7" data-name="Path" d="M22.883,17.19c-3.429-4.12-12.814-6.454-18.94-7.583A4.832,4.832,0,0,1,.025,5.321,4.921,4.921,0,0,1,.263,3.238,4.869,4.869,0,0,1,5.348.026c10.45,1.058,21.226,4.345,29.2,11.426,0,0,38.641,29.478,43.255,32.348,1.9,1.156,3.68-.209,2.39-2.024l-.4-.692a62.261,62.261,0,0,0-8.017-10.851" transform="translate(106.539 63.054)" fill="none" stroke="#000" stroke-miterlimit="10" stroke-width="3"/>
        <path id="Path-8" data-name="Path" d="M90.37,4.57c-48.6.4-90.37,18.8-90.37,18.8L4.17,0" transform="translate(39.768 31.304)" fill="none" stroke="#000" stroke-miterlimit="10" stroke-width="3"/>
      </g>
      <path id="Path-9" data-name="Path" d="M7.7.156S2.409-1.042,1,3.2-1.876,14.174,8.244,14.572s4.177-1.59,3.592-4.864S7.7.156,7.7.156Z" transform="translate(224.028 240.561)" fill="#353642"/>
      <path id="Path-10" data-name="Path" d="M11.416,1.907S5.7-2.422.562,1.965A3.121,3.121,0,0,0,0,2.618" transform="translate(139.45 161.385)" fill="none" stroke="#000" stroke-miterlimit="10" stroke-width="3"/>
      <g id="Group-3" data-name="Group" transform="translate(54.73 88.024)" opacity="0.77">
        <path id="Path-11" data-name="Path" d="M24.788,20.549a5.194,5.194,0,0,0,6.965,1.4c1.381-.914,2.191-2.736,1.025-5.55.212.31.4.584.594.836,2.358,3.2,6.012,1.273,6.012,1.273,2.965-1.6,2.465-4.244,1.169-7.463A40.955,40.955,0,0,0,35.6,2.072C36.923.835,38.494-.416,40.149.133c1.786.594,2.286,2.834,2.488,4.7.095.868.189,1.727.284,2.6l1.43,12.784A97.077,97.077,0,0,0,46.341,32.9a37.347,37.347,0,0,0,2.214,6.529,25.5,25.5,0,0,0,5.466,7.835A49.691,49.691,0,0,0,61.5,37.8a10.773,10.773,0,0,1,7.383,9.307v.108c.81,7.642-6.551,13.384-12.735,16.916A122.56,122.56,0,0,1,33.213,73.87c-3.226,1.058-7.419,1.959-10.825.855a8.049,8.049,0,0,1-1.071-.428c-3.4-1.665-5.669-5.155-7.442-8.344C5.385,50.693,1.858,33.169,0,15.815c3.716-.513,7.419-1.084,11.077-1.871a.041.041,0,0,0,.023.036l4.216,6.989.346.581a4.237,4.237,0,0,0,4.01,1.525,4.693,4.693,0,0,0,2.645-.979c2.345-1.959.144-4.616-1.071-6.486" transform="translate(0 0)" fill="#fff"/>
        <g id="Group-4" data-name="Group" transform="translate(0 0)">
          <path id="Path-12" data-name="Path" d="M24.788,20.549a5.194,5.194,0,0,0,6.965,1.4c1.381-.914,2.191-2.736,1.025-5.55.212.31.4.584.594.836,2.358,3.2,6.012,1.273,6.012,1.273,2.965-1.6,2.465-4.244,1.169-7.463A40.955,40.955,0,0,0,35.6,2.072C36.923.835,38.494-.416,40.149.133c1.786.594,2.286,2.834,2.488,4.7.095.868.189,1.727.284,2.6l1.43,12.784A97.077,97.077,0,0,0,46.341,32.9a37.347,37.347,0,0,0,2.214,6.529,25.5,25.5,0,0,0,5.466,7.835A49.691,49.691,0,0,0,61.5,37.8a10.773,10.773,0,0,1,7.383,9.307v.108c.81,7.642-6.551,13.384-12.735,16.916A122.56,122.56,0,0,1,33.213,73.87c-3.226,1.058-7.419,1.959-10.825.855a8.049,8.049,0,0,1-1.071-.428c-3.4-1.665-5.669-5.155-7.442-8.344C5.385,50.693,1.858,33.169,0,15.815c3.716-.513,7.419-1.084,11.077-1.871a.041.041,0,0,0,.023.036l4.216,6.989.346.581a4.237,4.237,0,0,0,4.01,1.525,4.693,4.693,0,0,0,2.645-.979c2.345-1.959.144-4.616-1.071-6.486" transform="translate(0 0)" fill="#303030"/>
          <path id="Path-13" data-name="Path" d="M21.642,17.822c1.447,1.959,3.919,1.711,5.963.369,1.234-.816,2.247-.578,1.2-3.095.193.274.219-.653.389-.447,2.106,2.86.026-1.182.026-1.182,2.939,3.712,9.336.215,8.164-2.654-1.241-3.091-2.547-7.662-4.2-9.947C34.492-.368,34.24-.185,35.9.8a3.424,3.424,0,0,1,1.564,2.628c.134,1.244.268,2.435.4,3.65L39.142,18.5a86.7,86.7,0,0,0,1.776,11.328A33.169,33.169,0,0,0,42.9,35.652c1.169,2.582,4.924,6.881,6.975,8.85,2.55-2.53,5.607-7.182,7.478-10.273,3.592,1.1,3.435,4.538,3.69,8.288v.1c.725,6.819-5.845,11.941-11.351,15.1a109.714,109.714,0,0,1-20.475,8.693c-2.88.947-6.622,1.763-9.663.764a6.957,6.957,0,0,1-.957-.382c-3.03-1.489-5.062-4.6-6.645-7.449C5.017,46.892,1.8,32.76.031,18.592a4.12,4.12,0,0,1,3.448-4.57c1.989-.326,3.971-.653,5.94-1.09l.056.026L13.237,19.2c.82,1.159.954.251,2.3.134a7.061,7.061,0,0,0,3.164-.793c2.093-1.743.911-2.465-.173-4.133" transform="translate(4.149 3.762)" fill="#303030"/>
        </g>
      </g>
      <path id="Path-14" data-name="Path" d="M11.008,1.052S.163-2.513,0,3.481" transform="translate(139.169 168.54)" fill="none" stroke="#000" stroke-miterlimit="10" stroke-width="3"/>
      <path id="Path-15" data-name="Path" d="M21.482,63.353.213,8.883A7.15,7.15,0,0,1,7.153,0H91.631a8.444,8.444,0,0,1,8.213,6.47l23.283,54.458a7.15,7.15,0,0,1-6.952,8.814h-86.5a8.441,8.441,0,0,1-8.193-6.389Z" transform="translate(31.622 167.294)" fill="#fff" opacity="0.54"/>
      <path id="Path-16" data-name="Path" d="M14.67,25.249a4.055,4.055,0,0,1,1.091,3.917,3.051,3.051,0,0,1-3.876,2.2C6.529,29.516,1.706,26.372.531,21.028A25.957,25.957,0,0,1,.175,12.8,33.772,33.772,0,0,1,1.664,5.095C2.97,1.38,6.97-1.209,10.853.58" transform="translate(139.037 153.532)" fill="none" stroke="#000" stroke-miterlimit="10" stroke-width="3"/>
      <path id="Path-17" data-name="Path" d="M21.482,63.353.213,8.883A7.15,7.15,0,0,1,7.153,0H91.631a8.444,8.444,0,0,1,8.213,6.47l23.283,54.458a7.15,7.15,0,0,1-6.952,8.814h-86.5a8.441,8.441,0,0,1-8.193-6.389Z" transform="translate(31.622 167.294)" fill="#ffc500"/>
      <path id="Path-18" data-name="Path" d="M21.482,63.353.213,8.883A7.15,7.15,0,0,1,7.153,0H91.631a8.444,8.444,0,0,1,8.213,6.47l23.283,54.458a7.15,7.15,0,0,1-6.952,8.814h-86.5a8.441,8.441,0,0,1-8.193-6.389Z" transform="translate(31.622 167.294)" fill="none" stroke="#000" stroke-linecap="square" stroke-linejoin="round" stroke-miterlimit="10" stroke-width="3"/>
      <path id="Path-19" data-name="Path" d="M19.819,58.466.2,8.194A6.6,6.6,0,0,1,6.6,0H84.534A7.788,7.788,0,0,1,92.11,5.967l21.484,50.243a6.6,6.6,0,0,1-6.417,8.132h-79.8a7.788,7.788,0,0,1-7.556-5.876Z" transform="translate(36.397 169.987)" fill="#ffc500"/>
      <g id="Group-5" data-name="Group" transform="translate(0 88.014)">
        <path id="Path-20" data-name="Path" d="M0,0,14.943,34.567" transform="translate(223.008 132.552)" fill="none" stroke="#000" stroke-miterlimit="10" stroke-width="3"/>
        <path id="Path-21" data-name="Path" d="M293.9.49H0" transform="translate(0 166.63)" fill="none" stroke="#000" stroke-miterlimit="10" stroke-width="3"/>
        <path id="Path-22" data-name="Path" d="M8.1,0A5.617,5.617,0,0,1,0,.176" transform="translate(146.804 11.105)" fill="none" stroke="#000" stroke-miterlimit="10" stroke-width="3"/>
        <path id="Path-23" data-name="Path" d="M0,2.072C1.323.835,2.893-.416,4.549.133c1.786.594,2.286,2.834,2.488,4.7q.859,7.7,1.714,15.379c.725,6.529,1.489,13.215,4.2,19.215a25.5,25.5,0,0,0,5.466,7.835" transform="translate(90.33 0)" fill="none" stroke="#000" stroke-miterlimit="10" stroke-width="3"/>
        <path id="Path-24" data-name="Path" d="M46.537,9.415V9.307A10.773,10.773,0,0,0,39.153,0a49.691,49.691,0,0,1-7.478,9.467A51.1,51.1,0,0,1,4.036,23.631,56.518,56.518,0,0,0,6.289,29.38a7.929,7.929,0,0,1,.2,6.013c-1.1,2.37-4.245,2.06-6.433,1.534H0" transform="translate(77.076 37.808)" fill="none" stroke="#000" stroke-miterlimit="10" stroke-width="3"/>
        <path id="Path-25" data-name="Path" d="M11.077,0C7.419.787,3.716,1.358,0,1.871,1.858,19.224,5.372,36.748,13.875,52.009c1.773,3.189,4.046,6.679,7.442,8.344a8.048,8.048,0,0,0,1.071.428c3.406,1.12,7.6.2,10.825-.855a122.409,122.409,0,0,0,22.934-9.738c6.169-3.535,13.529-9.274,12.735-16.916A11.178,11.178,0,0,0,68.37,30.8" transform="translate(54.736 13.951)" fill="none" stroke="#000" stroke-miterlimit="10" stroke-width="3"/>
      </g>
      <path id="Path-26" data-name="Path" d="M0,12.893a11.222,11.222,0,0,0,9.911,8.559,5.911,5.911,0,0,1,1.228-2.566c2.612-3.078,3.726,2.7,12.082-1.449C34.8,11.679,39.2,14.983,39.2,14.983c.385.287.327,2.938.392,3.421.327,2.752.62,5.491.944,8.239.2,1.678.389,3.343.571,5.008a8.116,8.116,0,0,1,.522-.819c1.055-3.731,2.939-8.138,7-6.242a5.809,5.809,0,0,1,2.09,1.72c2.694,3.539.653,6.957-2.165,9.487A14.615,14.615,0,0,1,46.2,37.9c.464.96,2.358,4.769,2.358,4.782.2.385,6.815-7.1,7.308-7.92a19,19,0,0,0,1.169-6.238c.108-8.759-3.458-18.953-10.554-23.977-1.76-1.244-1.2-2.442-1.306-4.133a.454.454,0,0,0-.813-.238c-2.224,2.559-7.729,2.3-7.729,2.3C17.519-2.3,11.1,6.191,7.24,7.706a7.235,7.235,0,0,1-4.9.082,2.938,2.938,0,0,1-2,2.285l.1.885A2.937,2.937,0,0,1,0,12.893Z" transform="translate(126.969 54.455)" fill="#ffc500"/>
      <path id="Path-27" data-name="Path" d="M.47.49H.483" transform="translate(134.48 79.499)" fill="#3fbdf1"/>
      <path id="Path-28" data-name="Path" d="M10.316,25.511A11.222,11.222,0,0,1,.4,16.951a15.107,15.107,0,0,1-.4-2.67l.15-.016a2.211,2.211,0,0,0,.6-.131,2.938,2.938,0,0,0,2-2.285,2.764,2.764,0,0,0,.036-.888L2.3,6.639S5.754,9.208,9.588,7.706s10.27-10,29.39-5.223c0,0,4.317.255,6.531-2.3a.454.454,0,0,1,.813.238,5.018,5.018,0,0,0,2.5,4.133c7.1,5.027,10.662,15.219,10.551,23.977a20.511,20.511,0,0,1-3.106,10.3c-.493.816-7.112,8.3-7.308,7.92,0,0-1.894-3.823-2.358-4.782l-.111-.212.212-.14a21.982,21.982,0,0,0,2.253-1.753c2.815-2.53,4.859-5.948,2.165-9.487a5.809,5.809,0,0,0-2.09-1.72c-4.075-1.9-5.946,2.51-7,6.242a10.139,10.139,0,0,0-.376,2.187c-.049-.457-.1-.9-.147-1.355-.183-1.665-.376-3.33-.571-5.008-.327-2.749-.634-5.488-.944-8.239-.049-.47,0-3.134-.392-3.421,0,0-4.4-3.3-15.975,2.455-8.356,4.146-9.47-1.632-12.082,1.449a5.911,5.911,0,0,0-1.228,2.566,6.527,6.527,0,0,0-.114.917.392.392,0,0,0,0,.121c-.039.676-.052,1.348-.069,2.008-.062,6.362.637,13.009,3.135,18.918,3.037,7.162,11.073,14.227,19.43,10.887a26.992,26.992,0,0,0,7.1-4.528" transform="translate(126.578 50.411)" fill="none" stroke="#000" stroke-miterlimit="10" stroke-width="3"/>
      <ellipse id="Oval" cx="1.587" cy="1.92" rx="1.587" ry="1.92" transform="translate(139.888 88.302) rotate(-18.5)"/>
      <ellipse id="Oval-2" data-name="Oval" cx="1.587" cy="1.92" rx="1.587" ry="1.92" transform="translate(152.322 87.904) rotate(-18.5)"/>
      <g id="Group-6" data-name="Group" transform="translate(136.345 81.813)">
        <path id="Path-29" data-name="Path" d="M13.947,10.082S9.81,12.429,9.558,9.994C9.48,9.243,8.467,1.888,8.467,1.888A7.109,7.109,0,0,0,0,.964" transform="translate(0 1.298)" fill="none" stroke="#000" stroke-miterlimit="10" stroke-width="3"/>
        <path id="Path-30" data-name="Path" d="M0,1.127S6.681-2.209,11.1,2.6" transform="translate(13.016 0)" fill="none" stroke="#000" stroke-miterlimit="10" stroke-width="3"/>
        <path id="Path-31" data-name="Path" d="M2.951,0l.767,3.937C1.3,6.167-.413,9.362.087,12.728c.444,2.984,2.887,5.762,5.391,7.325,4.186,2.612,9.754,2.406,14.26.744a24.294,24.294,0,0,0,10.979-8.51,14.74,14.74,0,0,0,2.534-6.14V6.108" transform="translate(16.192 27.794)" fill="none" stroke="#000" stroke-miterlimit="10" stroke-width="3"/>
        <path id="Path-32" data-name="Path" d="M0,0,1.5,7.11" transform="translate(19.91 31.731)" fill="none" stroke="#000" stroke-miterlimit="10" stroke-width="3"/>
        <path id="Path-33" data-name="Path" d="M28.955,0l2.26,15a6.2,6.2,0,0,0,6.142,5.272,143.1,143.1,0,0,1,20.756,4.975c26.506,8.546,42.821,32.416,47.428,59.087a89.864,89.864,0,0,1-.346,33.986c-1.368,6.251-3.347,13.273-7.942,17.955-5.966,6.1-15.123,3.591-22.173.832-21.889-8.51-40.094-23.651-55.814-40.985A125.557,125.557,0,0,0,0,79.421" transform="translate(12.105 13.63)" fill="none" stroke="#000" stroke-miterlimit="10" stroke-width="3"/>
      </g>
      <path id="Path-34" data-name="Path" d="M5.711,20.721A5.575,5.575,0,0,1,.565,15.958C-.526,10.532-.813,2.142,7.145.311c9.943-2.285,17.591,8.54,21.34,15.382,1.26,2.285-.167,5.223-2.514,5.223Z" transform="translate(57.738 196.48)" fill="#f5db81"/>
      <ellipse id="Oval-3" data-name="Oval" cx="4.592" cy="6.769" rx="4.592" ry="6.769" transform="translate(55.409 183.46) rotate(-33.64)" fill="#f5db81"/>
      <path id="Path-35" data-name="Path" d="M59.785,20.334c-.153.023-.327.046-.477.082h-.059L36.022,20.3l-34.853-.18h-.4A7.512,7.512,0,0,1,0,20.057a10.1,10.1,0,0,0,8.918-9.451,3.449,3.449,0,0,0,0-.369v-.189A10.1,10.1,0,0,0,.833.193C.594.134.333.1.082.062.477.026.869,0,1.251,0L30.7.157,36.117.18l7.311.036a10.1,10.1,0,0,1,9.179,10.022,9.28,9.28,0,0,1-.108,1.417A10.1,10.1,0,0,1,42.553,20.3H60.245c-1.019,0-.735,0-.46.039Z" transform="translate(170.358 220.563)" fill="#303030"/>
      <path id="Path-36" data-name="Path" d="M20.481,12.176a7.11,7.11,0,0,0,5.065,2.1H8.441c-3.266,0-5.048-.8-6.348-2.1A7.181,7.181,0,0,1,0,7.13C0,3.212,3.213,0,8.441,0h17.1A7.129,7.129,0,0,0,20.5,12.176Z" transform="translate(162.547 240.861)" fill="#fee183"/>
      <path id="Path-37" data-name="Path" d="M26.816,10.2a9.84,9.84,0,0,1-1.025,4.345,9.487,9.487,0,0,1-1.94,2.739,10.062,10.062,0,0,1-4.81,2.654,10.2,10.2,0,0,1-2.286.261c.157-.036.327-.059.477-.082-.274-.026-.558-.036.464-.036H0a10.1,10.1,0,0,0,9.953-8.644,9.281,9.281,0,0,0,.108-1.417A10.1,10.1,0,0,0,.878,0L10.43.049l6.381.036A10.089,10.089,0,0,1,26.816,10.2Z" transform="translate(212.702 220.778)" fill="#ffc500"/>
      <g id="Group-7" data-name="Group" transform="translate(162.547 220.566)">
        <path id="Path-38" data-name="Path" d="M69.392,10.41A10.082,10.082,0,0,1,59.269,20.416l-58.1-.3c-.389,0-.777-.029-1.169-.069A10.066,10.066,0,0,0,8.934,10.1,10.065,10.065,0,0,0,.1.059,10.78,10.78,0,0,1,1.274,0l58.1.3A10.085,10.085,0,0,1,69.392,10.41Z" transform="translate(7.579 0)" fill="none" stroke="#000" stroke-linecap="square" stroke-linejoin="round" stroke-miterlimit="10" stroke-width="3"/>
        <path id="Path-39" data-name="Path" d="M52.571,10.055A10.082,10.082,0,0,1,42.507,20.116H1.169A11.691,11.691,0,0,1,0,20.05a10.065,10.065,0,0,0,8.881-9.994A10.065,10.065,0,0,0,0,.062C.389.026.78,0,1.169,0H42.507A10.086,10.086,0,0,1,52.571,10.055Z" transform="translate(7.638 0.176)" fill="none" stroke="#000" stroke-linecap="square" stroke-linejoin="round" stroke-miterlimit="10" stroke-width="3"/>
        <path id="Path-40" data-name="Path" d="M0,7.139a7.119,7.119,0,0,0,2.09,5.04c1.306,1.306,3.079,2.1,6.348,2.1H67.847c-1.022,0-.745-.02-.467-.046a7.142,7.142,0,0,1,0-14.187C67.1.02,66.825,0,67.847,0H8.438C3.207,0,0,3.215,0,7.139Z" transform="translate(0 20.289)" fill="none" stroke="#000" stroke-linecap="square" stroke-linejoin="round" stroke-miterlimit="10" stroke-width="3"/>
        <path id="Path-41" data-name="Path" d="M0,7.139a7.157,7.157,0,0,0,7.142,7.139H48.166c.274,0,.552-.02.829-.046A7.142,7.142,0,0,1,49,.046C48.718.02,48.441,0,48.166,0H7.142A7.16,7.16,0,0,0,0,7.139Z" transform="translate(18.385 20.289)" fill="none" stroke="#000" stroke-linecap="square" stroke-linejoin="round" stroke-miterlimit="10" stroke-width="3"/>
      </g>
      <path id="Path-42" data-name="Path" d="M22.444,5.217H4.118A4.324,4.324,0,0,1,.167,2.631,1.861,1.861,0,0,1,1.891,0H21.373a4.385,4.385,0,0,0,1.071,5.217Z" transform="translate(91.985 188.307)" fill="#f5db81"/>
      <path id="Path-43" data-name="Path" d="M13.39,3.34a1.887,1.887,0,0,1-1.884,1.884H1.54A4.392,4.392,0,0,1,.469,0h8.8a4.327,4.327,0,0,1,3.955,2.572,2.01,2.01,0,0,1,.167.767Z" transform="translate(112.89 188.297)" fill="#d6a90d"/>
      <path id="Path-44" data-name="Path" d="M8.806,6.968a1.959,1.959,0,0,1-.18.284C7.32,9.038,4.482,9.211,2.278,7.6a6.828,6.828,0,0,1-.738-.63A4.392,4.392,0,0,1,.469,1.745a1.959,1.959,0,0,1,.18-.284C1.955-.337,4.779-.5,6.984,1.1a6.589,6.589,0,0,1,.748.653A4.413,4.413,0,0,1,8.806,6.968Z" transform="translate(112.89 186.555)" fill="#303030"/>
      <path id="Path-45" data-name="Path" d="M22.186,3.343a1.894,1.894,0,0,1-1.894,1.88H1.061A4.37,4.37,0,0,0,0,0H18.065a4.32,4.32,0,0,1,3.955,2.582,1.893,1.893,0,0,1,.167.761Z" transform="translate(108.702 199.794)" fill="#d6a90d"/>
      <path id="Path-46" data-name="Path" d="M13.17,5.213H4.121A4.32,4.32,0,0,1,.167,2.641,1.926,1.926,0,0,1,0,1.88,1.877,1.877,0,0,1,1.881,0H12.109A4.34,4.34,0,0,1,13.17,5.213Z" transform="translate(96.594 199.804)" fill="#f5db81"/>
      <path id="Path-47" data-name="Path" d="M8.785,6.974a1.25,1.25,0,0,1-.167.287c-1.306,1.8-4.134,1.959-6.335.356a6.628,6.628,0,0,1-.751-.653A4.421,4.421,0,0,1,.461,1.742a2.167,2.167,0,0,1,.18-.287C1.947-.331,4.784-.5,6.985,1.112a6.2,6.2,0,0,1,.738.63A4.372,4.372,0,0,1,8.785,6.974Z" transform="translate(100.979 198.043)" fill="#303030"/>
      <path id="Path-48" data-name="Path" d="M15.635,5.213H4.121A4.333,4.333,0,0,1,.166,2.641,1.871,1.871,0,0,1,1.894,0h12.67a4.4,4.4,0,0,0,1.071,5.213Z" transform="translate(100.536 211.22)" fill="#d6a90d"/>
      <path id="Path-49" data-name="Path" d="M20.192,3.356a1.877,1.877,0,0,1-1.881,1.867H1.533A4.416,4.416,0,0,1,.462,0H16.071a4.32,4.32,0,0,1,3.955,2.582,1.958,1.958,0,0,1,.167.774Z" transform="translate(114.637 211.21)" fill="#f5db81"/>
      <path id="Path-50" data-name="Path" d="M8.8,6.967a2.167,2.167,0,0,1-.18.287c-1.306,1.8-4.131,1.959-6.335.356a6.886,6.886,0,0,1-.748-.653A4.416,4.416,0,0,1,.462,1.734a1.844,1.844,0,0,1,.176-.287C1.945-.339,4.782-.493,6.987,1.1a6.2,6.2,0,0,1,.738.63A4.417,4.417,0,0,1,8.8,6.967Z" transform="translate(114.64 209.467)" fill="#303030"/>
      <path id="Path-51" data-name="Path" d="M.059,0,.346.082.238.5A5.255,5.255,0,0,1,.059,0Z" transform="translate(36.388 112.359)" fill="#353642"/>
      <ellipse id="Oval-4" data-name="Oval" cx="8.112" cy="9.719" rx="8.112" ry="9.719" transform="translate(74.291 122.11) rotate(-16.36)" fill="#ffd02d"/>
    </g>
  </g>
</svg>
