<svg xmlns="http://www.w3.org/2000/svg" width="21.481" height="22.01" viewBox="0 0 21.481 22.01">
  <g id="Iconly_Light_Graph" data-name="Iconly/Light/Graph" transform="translate(0.75 0.75)">
    <g id="Graph">
      <path id="Path_33948" d="M9.266,7.416A8.844,8.844,0,0,0,.789,0,.76.76,0,0,0,0,.73H0V.8L.477,7.932A.877.877,0,0,0,1.4,8.75l7.161-.477a.759.759,0,0,0,.7-.817Z" transform="translate(10.712 0)" fill="none" stroke="#30cf47" stroke-linecap="round" stroke-linejoin="round" stroke-miterlimit="10" stroke-width="1.5"/>
      <path id="Path_33949" d="M6.541.025A.975.975,0,0,1,7.652.58.875.875,0,0,1,7.74.9c.1,1.382.3,4.409.419,6.044A1.11,1.11,0,0,0,9.347,7.976h0l6.012-.37a.974.974,0,0,1,1.033.973h0a8.2,8.2,0,0,1-15.356,3.4A7.779,7.779,0,0,1,.062,9,5.016,5.016,0,0,1,0,8.025a8.2,8.2,0,0,1,6.528-8" transform="translate(0 4.219)" fill="none" stroke="#30cf47" stroke-linecap="round" stroke-linejoin="round" stroke-miterlimit="10" stroke-width="1.5"/>
    </g>
  </g>
</svg>
