<svg width="28" height="28" xmlns="http://www.w3.org/2000/svg"><path d="M0 19.75V8.25a9.777 9.777 0 0 1 .455-3.027 7.617 7.617 0 0 1 1.717-2.921A7.39 7.39 0 0 1 6.632.083C7.052.027 7.474 0 7.898 0h12.204a8.628 8.628 0 0 1 3.017.515A7.137 7.137 0 0 1 25.83 2.3a7.827 7.827 0 0 1 1.962 3.86c.14.688.21 1.39.207 2.091v11.5a9.805 9.805 0 0 1-.454 3.03 7.61 7.61 0 0 1-1.715 2.92 7.386 7.386 0 0 1-4.455 2.216 9.465 9.465 0 0 1-1.274.084H7.898c-2.32 0-4.3-.795-5.73-2.3a7.827 7.827 0 0 1-1.962-3.86c-.14-.688-.209-1.388-.206-2.09zm1.953-11.5v11.5c0 3.588 2.054 5.986 5.29 6.269.218.019.436.028.655.028h12.204c2.932 0 5.022-1.63 5.704-4.291.164-.656.245-1.33.24-2.007V8.251c0-3.59-2.053-5.987-5.29-6.27a7.523 7.523 0 0 0-.654-.028H7.898c-2.933 0-5.022 1.63-5.705 4.291a8.076 8.076 0 0 0-.24 2.006zm11.08 10.641l-.01-.132v-3.795H9.225a.976.976 0 0 1-.133-1.944l.133-.01h3.798V9.218a.977.977 0 0 1 1.945-.132l.008.132v3.794h3.8a.976.976 0 0 1 .132 1.944l-.133.009h-3.799v3.795a.977.977 0 0 1-1.944.132z" fill="#200e32" fill-rule="evenodd"/></svg>