<svg xmlns="http://www.w3.org/2000/svg" width="286.141" height="189.026" viewBox="0 0 286.141 189.026">
  <g id="Business_Support_design_communication_customer_service_laptop_computer_messages_woman" data-name="Business, Support, design, communication | customer service, laptop, computer, messages, woman" transform="translate(1 1.521)">
    <g id="Group">
      <path id="Path" d="M57.155,17.987,56.6,23.331,52.245,33.764q-.76,1.831-1.525,3.655a5.3,5.3,0,0,1-.971,1.549.242.242,0,0,1-.183.107c-.123,0-.167-.164-.176-.288a29.952,29.952,0,0,0-.47-3.927C47.562,28.6,40.313,26.3,34.628,26.445a15.969,15.969,0,0,0-6.574,1.527c-2.969,1.442-4.125,5.451-4.283,5.6l-.126.515L21.609,42.6c-.429,1.9-.756,2.9-2.5,3.405-.057.019-1.8.949-1.853.949-.674.19,1.172-.218.441-.341l-2.316-.364-.986-.228L0,42.6q.837.142,1.708.316l3.341.8-.882-4.249c-2.3-13.229,1.51-25.231,8-31.747a16.8,16.8,0,0,1,4.548-3.295l1.119,2.659S29.274,10.507,31.971,0c1.09.095,3.186.079,4.267.316A26.194,26.194,0,0,1,50.719,8.891c.331.379.655.771.977,1.17l.17.209c.2.25.41.506.608.762l.142.2a67.249,67.249,0,0,1,4.538,6.754Z" transform="translate(169.295 94.491)" fill="#505050"/>
      <path id="Path-2" data-name="Path" d="M0,57.173c1.815-9.106,9.524-17.927,31.54-19.948C80.475,32.738,54.022,19.2,69.956,4.39s76.18,9.558,60.419,47.619,36.267-4.183,58.3,44.027a50.061,50.061,0,0,1,4.491,22.328,54.67,54.67,0,0,1-6.1,23.3c-7.037,13.792-20.109,26.078-39.015,33.692q-4.185,1.711-8.761,3.076" transform="translate(90.446 0)" fill="none" stroke="#9fa1ab" stroke-miterlimit="10" stroke-width="3" opacity="0.2"/>
      <path id="Path-3" data-name="Path" d="M64.072,75.206H4.51l-1.774-.531S2.376,54.385,0,49.194L8.824,52.2l8.547,2.466s11.758.247,18.48-11.793A50.936,50.936,0,0,0,38,34.82c.876-4.5,5.534-29.284,7.488-34.82A150.22,150.22,0,0,1,52.49,13.931c1.727,4.208,3.18,8.4,4.368,12.287a154.666,154.666,0,0,1,4.67,19.518,171.637,171.637,0,0,1,2.543,29.471Z" transform="translate(178.784 111.292)" fill="#505050"/>
      <path id="Path-4" data-name="Path" d="M80.953,78.391c-.381,4.468-3.4,5.195-3.4,5.195a5.245,5.245,0,0,1-7.264-2.953.282.282,0,0,1-.019-.095,51.908,51.908,0,0,0-3.511-8.973c-3.183-7.727-7.321-15.518-12.628-21.68A26.2,26.2,0,0,0,39.65,41.31c-.019,0-.028-.019-.047-.019C32.131,39.034,28.494,34.424,26.918,30v-.019c-.674-2.792-1.361-5.514-.993-7.161.63-2.887.945-6.007.161-6.64-.986-.828-2.77-.215-7.308.7-3.93.809-6.026.351-6.5-2.058a5.849,5.849,0,0,1-.113-1.135c-.019.24-.945-.715-.99-.487-.3,1.23-.889,1.723-2.181,2.264-1.919.8-2.7,3.889-2.988,5.947-.3,2.191.687,5.214,1.465,7.272-1-1.141-2.137-1.009-3.92-.316a4.546,4.546,0,0,1-2.468-.19,1.111,1.111,0,0,1,.435-.231c.287-.095-1.793-1.132-1.491-1.2,3.029-.686,4.727-3.219,4.368-5.448-.892-5.612.3-12.214,4.075-16.587C12.639-.09,19.437-1.089,25.191,1.111c4.519,1.723,8.793,5.258,10.359,9.972a.07.07,0,0,0,.019.057,12.32,12.32,0,0,1,.457,1.837c.577,3.506-.656,7.06-1.339,10.525-.246,1.249.378,2.612.511,3.6.759,5.944,7.6,7.623,13.009,10.146A60.9,60.9,0,0,1,75.113,62.7c4.147,7.316,5.628,12.306,5.84,15.689Z" transform="translate(164.507 53.671)" fill="#ffd64d"/>
      <g id="Group-2" data-name="Group" transform="translate(19.617 94.484)">
        <path id="Path-5" data-name="Path" d="M14.609,0c-.123.066-.246.133-.359.209A26.586,26.586,0,0,0,8.665,4.5C2.183,11.012-1.624,23.014.673,36.243l.882,4.227" transform="translate(151.274 3.25)" fill="none" stroke="#000" stroke-miterlimit="10" stroke-width="2"/>
        <path id="Path-6" data-name="Path" d="M41.965,92.013a171.637,171.637,0,0,0-2.543-29.461,154.668,154.668,0,0,0-4.67-19.518c-1.188-3.886-2.641-8.078-4.368-12.287a100.143,100.143,0,0,0-5.547-11.471A64.406,64.406,0,0,0,17.755,9.068,26.2,26.2,0,0,0,3.274.493,27.564,27.564,0,0,0,0,0" transform="translate(181.275 0)" fill="none" stroke="#000" stroke-miterlimit="10" stroke-width="2"/>
        <path id="Path-7" data-name="Path" d="M22.974.189,22.813.161A11.638,11.638,0,0,0,12.259,3.829L1.481,15.609.221,17A3.128,3.128,0,0,0,0,17.269" transform="translate(83.782 5.878)" fill="none" stroke="#000" stroke-miterlimit="10" stroke-width="2"/>
        <path id="Path-8" data-name="Path" d="M0,6.592,5.915.009,5.925,0" transform="translate(91.191 19.631)" fill="none" stroke="#000" stroke-miterlimit="10" stroke-width="2"/>
        <path id="Path-9" data-name="Path" d="M0,49.994,27.824,59.83a19.782,19.782,0,0,0,26-14.911L60.4,11.2A13.117,13.117,0,0,0,58.267,1.164,12.112,12.112,0,0,0,57.347,0" transform="translate(142.647 10.231)" fill="none" stroke="#000" stroke-miterlimit="10" stroke-width="2"/>
        <path id="Path-10" data-name="Path" d="M15.1,37.277c-3.542,2.4-6.145,9.688-7.529,14.471A3.866,3.866,0,0,1,.081,49.861C2.4,38.5,10.572,16.065,38.654,21.01q.841.142,1.708.316l3.334.806,9.35,2.286,2.521.61a5.341,5.341,0,0,0,2.9-.1,1.142,1.142,0,0,0,.17-.047A5.435,5.435,0,0,0,62.148,21l2.127-8.878.123-.515L67.184,0" transform="translate(109.133 21.588)" fill="none" stroke="#000" stroke-miterlimit="10" stroke-width="2"/>
        <path id="Path-11" data-name="Path" d="M13.627,8.221H4.1A4.11,4.11,0,0,1,4.1,0H17.6" transform="translate(96.91 14.263)" fill="none" stroke="#000" stroke-miterlimit="10" stroke-width="2"/>
        <path id="Path-12" data-name="Path" d="M11.651,0A5.517,5.517,0,0,1,9.94,3.772C7.519,5.985,3.085,5.732,0,4.218" transform="translate(91.572 22.48)" fill="none" stroke="#000" stroke-miterlimit="10" stroke-width="2"/>
        <path id="Path-13" data-name="Path" d="M1.852,18.468C-.881,15.155-.323,10.662,1.8,7.19,7.814-2.662,21.561-.771,30.476,3.323,37.7,6.63,44.027,11.6,50.188,16.558c3.01,2.422,5.966,4.945,8.824,7.588a4.671,4.671,0,0,0,7.248-1.233c1.576-2.918,3.281-6.1,3.6-6.984" transform="translate(83.424 3.016)" fill="none" stroke="#000" stroke-miterlimit="10" stroke-width="2"/>
        <path id="Path-14" data-name="Path" d="M0,0S14.216,7.737,24.777,18.854" transform="translate(101.515 26.252)" fill="none" stroke="#000" stroke-miterlimit="10" stroke-width="2"/>
        <path id="Path-15" data-name="Path" d="M.663,2.78C-.912,5.48.443,9.445,3.421,10.394a28.043,28.043,0,0,0,11.8,1.186c4.333-.506,7.214-4.094,9.111-8.2a2.393,2.393,0,1,0-4.393-1.9,9.439,9.439,0,0,1-2.9,4.11" transform="translate(120.1 60.281)" fill="none" stroke="#000" stroke-miterlimit="10" stroke-width="2"/>
        <path id="Path-16" data-name="Path" d="M2,0S-1.89,4.2,1.179,8.644a2.6,2.6,0,0,0,.473.5" transform="translate(126.183 62.555)" fill="none" stroke="#000" stroke-miterlimit="10" stroke-width="2"/>
        <path id="Path-17" data-name="Path" d="M1.336,0s-3.6,8.126,1.018,8.72" transform="translate(131.983 63.248)" fill="none" stroke="#000" stroke-miterlimit="10" stroke-width="2"/>
        <path id="Path-18" data-name="Path" d="M222.883.49H0" transform="translate(38.212 91.53)" fill="none" stroke="#000" stroke-miterlimit="10" stroke-width="2"/>
        <path id="Path-19" data-name="Path" d="M105.444.013H83.217A8.557,8.557,0,0,1,74.708,7.67H0a7.652,7.652,0,0,0,7.623,7.648h97.821a7.664,7.664,0,0,0,7.649-7.648V2.529A2.525,2.525,0,0,0,110.571,0Z" transform="translate(20.45 76.695)" fill="none" stroke="#000" stroke-miterlimit="10" stroke-width="2"/>
        <path id="Path-20" data-name="Path" d="M91.572,3.551A8.6,8.6,0,0,1,92.959,6.58l10.529,44.056a8.314,8.314,0,0,1,.18,2.925,8.557,8.557,0,0,1-8.509,7.658H19.064a8.559,8.559,0,0,1-8.317-6.583L.237,10.582A8.571,8.571,0,0,1,8.553,0H84.642a8.479,8.479,0,0,1,6.549,3.076Z" transform="translate(0 23.147)" fill="none" stroke="#000" stroke-miterlimit="10" stroke-width="2"/>
      </g>
      <path id="Shape" d="M62.931,55.486a4.517,4.517,0,0,1-4.51-4.518,4.507,4.507,0,0,0-4.5-4.515H14.812a17.541,17.541,0,0,1-12.59-5.277A17.694,17.694,0,0,1,0,32.566v-.231A32.267,32.267,0,0,1,32.227,0H72.118A32.092,32.092,0,0,1,94.906,9.485c.533.534,1.043,1.085,1.528,1.657a32.167,32.167,0,0,1,5.042,17.38A17.677,17.677,0,0,1,83.829,46.228H74.308a4.511,4.511,0,0,0-4.5,4.515v.208a4.248,4.248,0,0,0,2.858,4.022c0,.085.019.171.019.266l-9.656.247Z" transform="translate(2.836 55.212)" fill="#f5db81"/>
      <g id="Group-3" data-name="Group" transform="translate(0 51.418)">
        <path id="Path-21" data-name="Path" d="M104.313,32.319A17.677,17.677,0,0,1,86.665,50.025H77.15a4.511,4.511,0,0,0-4.5,4.512v.209a4.248,4.248,0,0,0,2.858,4.022A4.085,4.085,0,0,0,76.876,59l-1.349.038-9.662.247h-.1a4.517,4.517,0,0,1-4.51-4.515,4.508,4.508,0,0,0-4.5-4.515h-39.1A17.677,17.677,0,0,1,0,32.544v-.231A32.264,32.264,0,0,1,32.214,0H72.092a32.276,32.276,0,0,1,32.22,32.319Z" transform="translate(0 0)" fill="none" stroke="#000" stroke-miterlimit="10" stroke-width="2"/>
        <path id="Path-22" data-name="Path" d="M28.154,29.91c-.019,0-.028-.019-.047-.019C20.635,27.634,17,23.024,15.422,18.6v-.019a16.726,16.726,0,0,1-.759-8.774,17.807,17.807,0,0,0,.5-3.219c.1-3.076-2.146-2.324-8.581-1.037C3.63,6.156,1.739,5.03.793,3.431a2.969,2.969,0,0,1-.24-.439A5.755,5.755,0,0,1,.024,0" transform="translate(176.003 13.64)" fill="none" stroke="#000" stroke-miterlimit="10" stroke-width="2"/>
        <path id="Path-23" data-name="Path" d="M7.85,30.9a4.436,4.436,0,0,0-.344-.439c-1-1.141-2.137-1.009-3.92-.316a4.546,4.546,0,0,1-2.468-.19c-.75-.269-1.311-.734-1.056-1.429a1.025,1.025,0,0,1,.7-.572,9.092,9.092,0,0,1,.9-.18c3.06-.686,2.376-4.24,2-6.469-.9-5.609.3-12.211,4.113-16.583,4.2-4.809,11.08-5.811,16.889-3.611,5.108,1.935,9.914,6.134,10.91,11.746a.07.07,0,0,0,.019.057c.019.019,0,.047,0,.066.589,3.506,0,7.307-.684,10.775a8.739,8.739,0,0,0,.315,5.122c1.787,4.543,7.816,6.127,12.675,8.375A61.251,61.251,0,0,1,75.092,62.7c4.986,8.764,6.167,14.155,5.893,17.481-.381,4.468-3.4,5.195-3.4,5.195a5.244,5.244,0,0,1-7.264-2.953.282.282,0,0,1-.019-.095,51.908,51.908,0,0,0-3.511-8.973" transform="translate(164.474 0.458)" fill="none" stroke="#000" stroke-miterlimit="10" stroke-width="2"/>
        <path id="Path-24" data-name="Path" d="M5.648,0A4.225,4.225,0,0,1,3.127,4.072C1.185,4.875.4,6.991.114,9.049a13.315,13.315,0,0,0,1.831,8.666C3.41,20.156,5.8,22.847,9.174,22.847c6.189,0,8.843-2.994,8.843-2.994" transform="translate(170.367 13.64)" fill="none" stroke="#000" stroke-miterlimit="10" stroke-width="2"/>
      </g>
      <ellipse id="Oval" cx="1.053" cy="1.056" rx="1.053" ry="1.056" transform="translate(181.388 72.966)"/>
      <ellipse id="Oval-2" data-name="Oval" cx="1.053" cy="1.056" rx="1.053" ry="1.056" transform="translate(172.129 73.582)"/>
      <g id="Group-4" data-name="Group" transform="translate(165.43 65.929)">
        <path id="Path-25" data-name="Path" d="M.365,0A30.1,30.1,0,0,0,.05,4.743c.211.572,1.528-.082,1.528-.082" transform="translate(11.928 7.1)" fill="none" stroke="#000" stroke-miterlimit="10" stroke-width="2"/>
        <path id="Path-26" data-name="Path" d="M0,2.261A3.965,3.965,0,0,0,5.26,0" transform="translate(14.244 13.148)" fill="none" stroke="#000" stroke-miterlimit="10" stroke-width="2"/>
        <ellipse id="Oval-3" data-name="Oval" cx="4.807" cy="4.918" rx="4.807" ry="4.918" transform="translate(12.309 7.861) rotate(-54.76)" fill="none" stroke="#000" stroke-miterlimit="10" stroke-width="2"/>
        <ellipse id="Oval-4" data-name="Oval" cx="4.807" cy="4.918" rx="4.807" ry="4.918" transform="translate(0 8.481) rotate(-54.76)" fill="none" stroke="#000" stroke-miterlimit="10" stroke-width="2"/>
      </g>
      <path id="Path-27" data-name="Path" d="M2.584.284,0,.417" transform="translate(176.43 72.678)" fill="none" stroke="#000" stroke-miterlimit="10" stroke-width="4.52"/>
      <path id="Path-28" data-name="Path" d="M0,0,5.739,13.678S16.81,16.666,19.5,6.156" transform="translate(181.384 87.905)" fill="none" stroke="#000" stroke-miterlimit="10" stroke-width="2"/>
      <ellipse id="Oval-5" data-name="Oval" cx="8.231" cy="9.274" rx="8.231" ry="9.274" transform="translate(59.091 143.582) rotate(-17.5)" fill="#f5db81"/>
      <path id="Path-29" data-name="Path" d="M2.981,26.622A153.159,153.159,0,0,0,0,0" transform="translate(176.872 159.876)" fill="none" stroke="#000" stroke-miterlimit="10" stroke-width="3"/>
    </g>
  </g>
</svg>
