<svg xmlns="http://www.w3.org/2000/svg" width="445.362" height="292.955" viewBox="0 0 445.362 292.955">
  <g id="Business_Support_design_communication_customer_service_laptop_computer_messages_woman" data-name="Business, Support, design, communication | customer service, laptop, computer, messages, woman" transform="translate(1.5 1.533)">
    <g id="Group" transform="translate(0 0)">
      <path id="Path" d="M89.138,27.961l-.87,8.306L81.48,52.487Q80.3,55.333,79.1,58.169a8.242,8.242,0,0,1-1.514,2.408.378.378,0,0,1-.285.167c-.192,0-.26-.256-.275-.447a46.414,46.414,0,0,0-.732-6.1c-2.118-9.737-13.423-13.3-22.289-13.084a24.973,24.973,0,0,0-10.253,2.374c-4.63,2.241-6.434,8.473-6.679,8.7l-.2.8L33.7,66.215c-.668,2.949-1.18,4.507-3.9,5.293-.088.029-2.8,1.474-2.89,1.474-1.052.295,1.828-.339.688-.531l-3.613-.565-1.538-.354L0,66.219q1.3.221,2.664.492l5.21,1.243L6.5,61.349C2.915,40.784,8.852,22.127,18.967,12a26.2,26.2,0,0,1,7.092-5.121L27.8,11.01S45.655,16.332,49.862,0c1.7.147,4.969.123,6.655.491A40.878,40.878,0,0,1,79.1,13.821c.516.59,1.022,1.2,1.524,1.819l.265.324c.31.388.639.786.949,1.185l.221.315a104.518,104.518,0,0,1,7.078,10.5Z" transform="translate(264.032 146.887)" fill="#505050"/>
      <path id="Path-2" data-name="Path" d="M0,88.875C2.831,74.72,14.853,61.007,49.189,57.867c76.32-6.974,35.063-28.015,59.914-51.042s118.81,14.858,94.23,74.024,56.562-6.5,90.927,68.441a77.6,77.6,0,0,1,7,34.71,84.768,84.768,0,0,1-9.52,36.218c-10.975,21.439-31.362,40.539-60.847,52.374q-6.527,2.659-13.664,4.782" transform="translate(141.06 0)" fill="none" stroke="#9fa1ab" stroke-miterlimit="10" stroke-width="3" opacity="0.2"/>
      <path id="Path-3" data-name="Path" d="M99.926,116.908H7.033l-2.767-.826S3.706,84.542,0,76.472l13.762,4.679,13.329,3.834s18.338.383,28.821-18.333A78.979,78.979,0,0,0,59.26,54.129C60.626,47.14,67.891,8.606,70.938,0A233.217,233.217,0,0,1,81.864,21.655c2.693,6.542,4.959,13.059,6.812,19.1A239.776,239.776,0,0,1,95.96,71.1a265.964,265.964,0,0,1,3.966,45.812Z" transform="translate(278.831 173.005)" fill="#505050"/>
      <path id="Path-4" data-name="Path" d="M126.254,121.86c-.595,6.945-5.3,8.075-5.3,8.075-3.981,2.354-10.1-.177-11.329-4.591a.438.438,0,0,1-.029-.147,80.533,80.533,0,0,0-5.475-13.949C99.153,99.236,92.7,87.125,84.422,77.546A40.888,40.888,0,0,0,61.838,64.217c-.029,0-.044-.029-.074-.029C50.111,60.678,44.439,53.512,41.982,46.641v-.029c-1.052-4.34-2.123-8.572-1.548-11.132.983-4.487,1.474-9.338.251-10.321-1.538-1.288-4.32-.334-11.4,1.091-6.129,1.258-9.4.546-10.135-3.2a9.063,9.063,0,0,1-.177-1.764c-.029.374-1.474-1.111-1.543-.757-.462,1.912-1.386,2.679-3.4,3.519-2.993,1.243-4.217,6.045-4.659,9.245-.462,3.406,1.071,8.1,2.285,11.3C10.1,42.822,8.324,43.028,5.542,44.1a7.112,7.112,0,0,1-3.848-.295,1.735,1.735,0,0,1,.678-.359c.447-.147-2.8-1.76-2.325-1.863,4.723-1.067,7.372-5,6.812-8.469C5.468,24.4,7.321,14.133,13.214,7.336c6.5-7.476,17.1-9.029,26.074-5.608C46.336,4.406,53,9.9,55.444,17.23a.108.108,0,0,0,.029.088,19.1,19.1,0,0,1,.713,2.856c.9,5.451-1.022,10.975-2.089,16.362-.383,1.941.59,4.06.8,5.6,1.185,9.24,11.85,11.85,20.289,15.772C92.92,66.168,107.4,80.294,117.146,97.471c6.468,11.373,8.778,19.129,9.107,24.388Z" transform="translate(256.564 83.432)" fill="#ffd64d"/>
      <g id="Group-2" data-name="Group" transform="translate(30.595 146.877)">
        <path id="Path-5" data-name="Path" d="M22.784,0c-.192.1-.383.206-.56.324a41.448,41.448,0,0,0-8.709,6.665C3.4,17.119-2.533,35.776,1.05,56.34l1.376,6.571" transform="translate(235.926 5.053)" fill="none" stroke="#000" stroke-miterlimit="10" stroke-width="3"/>
        <path id="Path-6" data-name="Path" d="M65.448,143.036a265.964,265.964,0,0,0-3.966-45.8A239.777,239.777,0,0,0,54.2,66.9c-1.853-6.041-4.119-12.558-6.812-19.1a155.454,155.454,0,0,0-8.65-17.832A100.113,100.113,0,0,0,27.691,14.1,40.888,40.888,0,0,0,5.107.767,43.119,43.119,0,0,0,0,0" transform="translate(282.715 0)" fill="none" stroke="#000" stroke-miterlimit="10" stroke-width="3"/>
        <path id="Path-7" data-name="Path" d="M35.83.295,35.58.25a18.185,18.185,0,0,0-16.46,5.7L2.31,24.265.344,26.427A4.866,4.866,0,0,0,0,26.845" transform="translate(130.665 9.137)" fill="none" stroke="#000" stroke-miterlimit="10" stroke-width="3"/>
        <path id="Path-8" data-name="Path" d="M0,10.248,9.225.015,9.24,0" transform="translate(142.22 30.517)" fill="none" stroke="#000" stroke-miterlimit="10" stroke-width="3"/>
        <path id="Path-9" data-name="Path" d="M0,77.716l43.394,15.29A30.861,30.861,0,0,0,83.938,69.827L94.205,17.414A20.338,20.338,0,0,0,90.873,1.809,18.839,18.839,0,0,0,89.438,0" transform="translate(222.472 15.905)" fill="none" stroke="#000" stroke-miterlimit="10" stroke-width="3"/>
        <path id="Path-10" data-name="Path" d="M23.551,57.948c-5.524,3.73-9.584,15.059-11.742,22.5a6.016,6.016,0,0,1-5.79,4.306,6.09,6.09,0,0,1-2.551-.56A6.026,6.026,0,0,1,.126,77.509C3.739,59.845,16.488,24.973,60.285,32.66q1.312.221,2.664.491l5.2,1.253,14.583,3.554,3.932.949a8.355,8.355,0,0,0,4.517-.162,1.784,1.784,0,0,0,.265-.074,8.459,8.459,0,0,0,5.48-6.026l3.318-13.8.192-.8L104.781,0" transform="translate(170.203 33.559)" fill="none" stroke="#000" stroke-miterlimit="10" stroke-width="3"/>
        <path id="Path-11" data-name="Path" d="M21.252,12.779H6.389A6.389,6.389,0,0,1,6.389,0H27.445" transform="translate(151.141 22.171)" fill="none" stroke="#000" stroke-miterlimit="10" stroke-width="3"/>
        <path id="Path-12" data-name="Path" d="M18.171,0A8.564,8.564,0,0,1,15.5,5.864C11.727,9.3,4.812,8.911,0,6.557" transform="translate(142.815 34.945)" fill="none" stroke="#000" stroke-miterlimit="10" stroke-width="3"/>
        <path id="Path-13" data-name="Path" d="M2.888,28.709C-1.373,23.558-.5,16.574,2.8,11.177,12.187-4.138,33.626-1.2,47.531,5.166,58.8,10.307,68.665,18.033,78.274,25.74c4.694,3.765,9.3,7.687,13.762,11.8a7.3,7.3,0,0,0,11.3-1.917c2.457-4.537,5.116-9.486,5.618-10.857" transform="translate(130.107 4.689)" fill="none" stroke="#000" stroke-miterlimit="10" stroke-width="3"/>
        <path id="Path-14" data-name="Path" d="M0,0S22.171,12.027,38.642,29.308" transform="translate(158.322 40.809)" fill="none" stroke="#000" stroke-miterlimit="10" stroke-width="3"/>
        <path id="Path-15" data-name="Path" d="M1.035,4.322c-2.457,4.2-.344,10.361,4.3,11.835A43.871,43.871,0,0,0,23.732,18c6.758-.786,11.25-6.365,14.209-12.754A3.73,3.73,0,1,0,31.09,2.3c-.983,2.271-2.5,5.112-4.517,6.389" transform="translate(187.308 93.707)" fill="none" stroke="#000" stroke-miterlimit="10" stroke-width="3"/>
        <path id="Path-16" data-name="Path" d="M3.122,0s-6.07,6.527-1.283,13.438a4.045,4.045,0,0,0,.737.777" transform="translate(196.795 97.243)" fill="none" stroke="#000" stroke-miterlimit="10" stroke-width="3"/>
        <path id="Path-17" data-name="Path" d="M2.083,0S-3.53,12.631,3.671,13.556" transform="translate(205.841 98.319)" fill="none" stroke="#000" stroke-miterlimit="10" stroke-width="3"/>
        <path id="Path-18" data-name="Path" d="M347.607.49H0" transform="translate(59.595 142.555)" fill="none" stroke="#000" stroke-miterlimit="10" stroke-width="3"/>
        <path id="Path-19" data-name="Path" d="M164.45.02H129.785a13.329,13.329,0,0,1-13.27,11.9H0A11.914,11.914,0,0,0,11.889,23.813H164.45a11.934,11.934,0,0,0,11.929-11.889V3.932A3.932,3.932,0,0,0,172.447,0Z" transform="translate(31.894 119.223)" fill="none" stroke="#000" stroke-miterlimit="10" stroke-width="3"/>
        <path id="Path-20" data-name="Path" d="M142.815,5.52a13.354,13.354,0,0,1,2.163,4.709L161.4,78.713a12.882,12.882,0,0,1,.28,4.546,13.329,13.329,0,0,1-13.27,11.9H29.731A13.339,13.339,0,0,1,16.761,84.931L.369,16.45A13.334,13.334,0,0,1,13.34,0H132.007A13.241,13.241,0,0,1,142.22,4.782Z" transform="translate(0 35.983)" fill="none" stroke="#000" stroke-miterlimit="10" stroke-width="3"/>
      </g>
      <path id="Shape" d="M98.147,86.253a7.033,7.033,0,0,1-7.033-7.023A7.018,7.018,0,0,0,84.1,72.211H23.1a27.4,27.4,0,0,1-19.635-8.2A27.435,27.435,0,0,1,0,50.624v-.359A50.241,50.241,0,0,1,50.261,0h62.214a50.132,50.132,0,0,1,35.54,14.745c.831.831,1.627,1.686,2.384,2.575a49.884,49.884,0,0,1,7.864,27.018,27.523,27.523,0,0,1-27.524,27.524H115.89a7.024,7.024,0,0,0-7.018,7.019V79.2a6.605,6.605,0,0,0,4.458,6.252c0,.133.029.265.029.413L98.3,86.253Z" transform="translate(4.423 85.828)" fill="#f5db81"/>
      <g id="Group-3" data-name="Group" transform="translate(0 79.93)">
        <path id="Path-21" data-name="Path" d="M162.686,50.241a27.524,27.524,0,0,1-27.524,27.524H120.324a7.023,7.023,0,0,0-7.019,7.014V85.1a6.606,6.606,0,0,0,4.458,6.252,6.39,6.39,0,0,0,2.133.354l-2.1.059-15.069.383h-.162a7.033,7.033,0,0,1-7.033-7.019,7.019,7.019,0,0,0-7.019-7.019H27.524A27.524,27.524,0,0,1,0,50.59v-.359A50.236,50.236,0,0,1,50.241,0h62.194a50.256,50.256,0,0,1,50.251,50.241Z" transform="translate(0 0)" fill="none" stroke="#000" stroke-miterlimit="10" stroke-width="3"/>
        <path id="Path-22" data-name="Path" d="M43.909,46.5c-.029,0-.044-.029-.074-.029C32.182,42.957,26.51,35.791,24.052,28.92V28.89a25.921,25.921,0,0,1-1.185-13.639,27.6,27.6,0,0,0,.786-5c.162-4.782-3.347-3.613-13.383-1.612-4.61.934-7.559-.816-9.034-3.3A4.61,4.61,0,0,1,.864,4.65,8.921,8.921,0,0,1,.038,0" transform="translate(274.493 21.203)" fill="none" stroke="#000" stroke-miterlimit="10" stroke-width="3"/>
        <path id="Path-23" data-name="Path" d="M12.242,48.035a6.9,6.9,0,0,0-.536-.683c-1.553-1.774-3.332-1.568-6.114-.491a7.112,7.112,0,0,1-3.848-.295C.574,46.148-.3,45.425.1,44.344a1.6,1.6,0,0,1,1.1-.89,14.22,14.22,0,0,1,1.406-.28c4.772-1.067,3.706-6.591,3.126-10.056C4.319,24.4,6.187,14.137,12.139,7.339,18.7-.136,29.42-1.694,38.479,1.726c7.967,3.008,15.463,9.535,17.016,18.259a.108.108,0,0,0,.029.088c.029.029,0,.074,0,.1.919,5.451,0,11.359-1.067,16.75a13.544,13.544,0,0,0,.491,7.962c2.787,7.063,12.189,9.525,19.768,13.02,17.935,8.262,32.547,22.388,42.4,39.566,7.775,13.624,9.619,22,9.191,27.175-.595,6.945-5.3,8.075-5.3,8.075-3.981,2.354-10.1-.177-11.329-4.591a.437.437,0,0,1-.029-.147,80.533,80.533,0,0,0-5.475-13.949" transform="translate(256.513 0.711)" fill="none" stroke="#000" stroke-miterlimit="10" stroke-width="3"/>
        <path id="Path-24" data-name="Path" d="M8.808,0A6.566,6.566,0,0,1,4.876,6.33C1.849,7.579.62,10.867.177,14.067A20.643,20.643,0,0,0,3.033,27.539c2.285,3.794,6.006,7.977,11.275,7.977,9.653,0,13.791-4.654,13.791-4.654" transform="translate(265.703 21.203)" fill="none" stroke="#000" stroke-miterlimit="10" stroke-width="3"/>
      </g>
      <circle id="Oval" cx="1.642" cy="1.642" r="1.642" transform="translate(282.891 113.425)"/>
      <circle id="Oval-2" data-name="Oval" cx="1.642" cy="1.642" r="1.642" transform="translate(268.451 114.384)"/>
      <g id="Group-4" data-name="Group" transform="translate(258.003 102.487)">
        <path id="Path-25" data-name="Path" d="M.569,0S-.251,6.483.078,7.372s2.384-.128,2.384-.128" transform="translate(18.602 11.036)" fill="none" stroke="#000" stroke-miterlimit="10" stroke-width="3"/>
        <path id="Path-26" data-name="Path" d="M0,3.514A6.19,6.19,0,0,0,8.2,0" transform="translate(22.214 20.439)" fill="none" stroke="#000" stroke-miterlimit="10" stroke-width="3"/>
        <ellipse id="Oval-3" data-name="Oval" cx="7.481" cy="7.662" rx="7.481" ry="7.662" transform="translate(19.196 12.219) rotate(-54.76)" fill="none" stroke="#000" stroke-miterlimit="10" stroke-width="3"/>
        <ellipse id="Oval-4" data-name="Oval" cx="7.481" cy="7.662" rx="7.481" ry="7.662" transform="translate(0 13.184) rotate(-54.76)" fill="none" stroke="#000" stroke-miterlimit="10" stroke-width="3"/>
      </g>
      <path id="Path-27" data-name="Path" d="M4.03.284,0,.491" transform="translate(275.16 113.136)" fill="none" stroke="#000" stroke-miterlimit="10" stroke-width="4.52"/>
      <path id="Path-28" data-name="Path" d="M0,0,8.95,21.262S26.216,25.907,30.414,9.569" transform="translate(282.886 136.649)" fill="none" stroke="#000" stroke-miterlimit="10" stroke-width="4.52"/>
      <ellipse id="Oval-5" data-name="Oval" cx="12.833" cy="14.421" rx="12.833" ry="14.421" transform="translate(92.157 223.199) rotate(-17.5)" fill="#f5db81"/>
      <path id="Path-29" data-name="Path" d="M4.65,41.384A237.345,237.345,0,0,0,0,0" transform="translate(275.848 248.528)" fill="none" stroke="#000" stroke-miterlimit="10" stroke-width="3"/>
    </g>
  </g>
</svg>
