<svg width="15" height="15" viewBox="0 0 15 15" fill="none" xmlns="http://www.w3.org/2000/svg">
<path fill-rule="evenodd" clip-rule="evenodd" d="M8.834 14.333H5.5C4.0418 14.3314 2.64377 13.7514 1.61267 12.7203C0.581561 11.6892 0.00158817 10.2912 0 8.833L0 5.5C0 2.467 2.467 0 5.5 0H8.834C10.2922 0.00158817 11.6902 0.581561 12.7213 1.61267C13.7524 2.64377 14.3324 4.0418 14.334 5.5V8.834C14.334 11.866 11.866 14.334 8.834 14.334V14.333ZM1 5.5V8.834C1 11.314 3.019 13.334 5.5 13.334H8.834C11.314 13.334 13.334 11.314 13.334 8.834V5.5C13.334 3.019 11.314 1 8.834 1H5.5C4.30693 1.00132 3.16311 1.47585 2.31948 2.31948C1.47585 3.16311 1.00132 4.30693 1 5.5V5.5Z" fill="#00ACBA"/>
<g clip-path="url(#clip0_0_1)">
<path fill-rule="evenodd" clip-rule="evenodd" d="M6.495 8.76L4.851 7.138C4.75553 7.05116 4.63017 7.0046 4.50115 7.00806C4.37213 7.01152 4.24945 7.06474 4.15877 7.15659C4.06809 7.24843 4.01643 7.37178 4.01461 7.50083C4.01279 7.62988 4.06095 7.75464 4.149 7.849L6.182 9.856C6.23119 9.90501 6.2901 9.94317 6.35493 9.96802C6.41977 9.99287 6.48909 10.0039 6.55843 10.0003C6.62778 9.9967 6.6956 9.97863 6.75753 9.94724C6.81946 9.91584 6.87413 9.87182 6.918 9.818L10.219 5.818C10.2633 5.76771 10.2971 5.70902 10.3183 5.64542C10.3394 5.58182 10.3476 5.51461 10.3423 5.44779C10.337 5.38097 10.3183 5.3159 10.2873 5.25645C10.2564 5.197 10.2138 5.14438 10.162 5.10172C10.1103 5.05907 10.0506 5.02724 9.98632 5.00815C9.92207 4.98905 9.85463 4.98307 9.78801 4.99056C9.7214 4.99805 9.65697 5.01885 9.59856 5.05174C9.54015 5.08463 9.48895 5.12893 9.448 5.182L6.495 8.76Z" fill="#00ACBA"/>
</g>
<defs>
<clipPath id="clip0_0_1" >
<rect width="6.333" height="5" fill="#00ACBA" transform="translate(4 5)"/>
</clipPath>
</defs>
</svg>
